<svg id="Grupo_145689" data-name="Grupo 145689" xmlns="http://www.w3.org/2000/svg" xmlns:xlink="http://www.w3.org/1999/xlink" width="350.619" height="284.935" viewBox="0 0 350.619 284.935">
  <defs>
    <clipPath id="clip-path">
      <rect id="Rectángulo_39204" data-name="Rectángulo 39204" width="350.619" height="284.935" fill="none"/>
    </clipPath>
    <clipPath id="clip-path-3">
      <rect id="Rectángulo_39189" data-name="Rectángulo 39189" width="3.424" height="9.68" transform="translate(89.889 95.61)" fill="none"/>
    </clipPath>
    <clipPath id="clip-path-4">
      <rect id="Rectángulo_39190" data-name="Rectángulo 39190" width="5.249" height="5.161" transform="translate(48.396 101.158)" fill="none"/>
    </clipPath>
    <clipPath id="clip-path-5">
      <rect id="Rectángulo_39191" data-name="Rectángulo 39191" width="1.43" height="4.244" transform="translate(58.109 103.42)" fill="none"/>
    </clipPath>
    <clipPath id="clip-path-6">
      <rect id="Rectángulo_39192" data-name="Rectángulo 39192" width="1.704" height="4.131" transform="translate(55.628 100.6)" fill="none"/>
    </clipPath>
    <clipPath id="clip-path-7">
      <rect id="Rectángulo_39193" data-name="Rectángulo 39193" width="9.17" height="5.675" transform="translate(179.062 16.358)" fill="none"/>
    </clipPath>
    <clipPath id="clip-path-8">
      <rect id="Rectángulo_39194" data-name="Rectángulo 39194" width="5.615" height="5.615" transform="translate(223.681 28.366)" fill="none"/>
    </clipPath>
    <clipPath id="clip-path-9">
      <rect id="Rectángulo_39195" data-name="Rectángulo 39195" width="1.498" height="5.115" transform="translate(216.272 29.627)" fill="none"/>
    </clipPath>
    <clipPath id="clip-path-10">
      <rect id="Rectángulo_39196" data-name="Rectángulo 39196" width="1.953" height="4.808" transform="translate(218.748 26.276)" fill="none"/>
    </clipPath>
    <clipPath id="clip-path-11">
      <rect id="Rectángulo_39198" data-name="Rectángulo 39198" width="5.324" height="5.324" transform="translate(283.375 103.056)" fill="none"/>
    </clipPath>
    <clipPath id="clip-path-12">
      <rect id="Rectángulo_39199" data-name="Rectángulo 39199" width="2.171" height="5.186" transform="translate(291.293 102.037)" fill="none"/>
    </clipPath>
    <clipPath id="clip-path-13">
      <rect id="Rectángulo_39200" data-name="Rectángulo 39200" width="46.119" height="45.825" transform="translate(269.147 110.733)" fill="none"/>
    </clipPath>
    <clipPath id="clip-path-14">
      <rect id="Rectángulo_39201" data-name="Rectángulo 39201" width="9.812" height="4.258" transform="translate(286.899 161.887)" fill="none"/>
    </clipPath>
    <clipPath id="clip-path-15">
      <rect id="Rectángulo_39202" data-name="Rectángulo 39202" width="9.795" height="4.121" transform="translate(65 150.729)" fill="none"/>
    </clipPath>
  </defs>
  <g id="Grupo_145688" data-name="Grupo 145688" clip-path="url(#clip-path)">
    <g id="Grupo_145687" data-name="Grupo 145687">
      <g id="Grupo_145686" data-name="Grupo 145686" clip-path="url(#clip-path)">
        <path id="Trazado_151641" data-name="Trazado 151641" d="M32.618,144.284a11.985,11.985,0,1,0,0,16.949,11.984,11.984,0,0,0,0-16.949" fill="#ff8578"/>
        <path id="Trazado_151642" data-name="Trazado 151642" d="M285.485,269.128H65.285V120.687l110.1-80.9,110.1,80.9Z" fill="#251f60"/>
        <path id="Trazado_151643" data-name="Trazado 151643" d="M47.267,89.622c-1.808-.683-4.191-1.22-5.386.3-.834,1.059-.6,2.61-1.155,3.837-.713,1.574-2.544,2.287-4.24,2.615s-3.513.455-4.934,1.437-2.136,3.248-.878,4.432c1.183,1.113,3.769,1.22,3.581,2.833-.122,1.041-1.472,1.449-1.953,2.379-.569,1.1.313,2.439,1.376,3.076a24.85,24.85,0,0,1,3.294,1.7c1.863,1.538,1.944,4.508,3.739,6.124,2.242,2.019,5.876.892,8.275-.937s4.479-4.32,7.4-5.072c1.816-.468,3.738-.192,5.6-.427s3.875-1.246,4.283-3.076c.327-1.46-.476-2.966-.3-4.452.308-2.627,3.543-4.853,2.447-7.26-.943-2.073-4.193-1.832-5.62-3.606a8.617,8.617,0,0,1-.993-2.041c-1.186-2.72-4.226-5.3-7.186-5.5a7.7,7.7,0,0,0-7.224,3.7" fill="#251f60"/>
        <path id="Trazado_151644" data-name="Trazado 151644" d="M55.981,115.143s13.51-.792,20.871-9.829.7-20.773-2.357-24.448l6.6-8.38a36.215,36.215,0,0,1,11.369,18.88c3.316,14.143-3.381,32.4-27.2,37.3Z" fill="#f5a489"/>
        <path id="Trazado_151645" data-name="Trazado 151645" d="M61.128,129.856c15.375-2.773,21.917-9.483,21.917-9.483a26.37,26.37,0,0,1-8.787-12.531c-7.956,3.963-14.789,1.527-23.208,5.006" fill="#f7f1e6"/>
        <path id="Trazado_151646" data-name="Trazado 151646" d="M70.266,109.377a25.94,25.94,0,0,0,6.211,11.568,18.784,18.784,0,0,0,2.723,2.37c.254.18.5-.239.244-.417a22.9,22.9,0,0,1-7.622-10.255,25.853,25.853,0,0,1-1.09-3.395c-.074-.3-.54-.174-.466.129" fill="#9437bf"/>
        <g id="Grupo_145649" data-name="Grupo 145649" style="mix-blend-mode: soft-light;isolation: isolate">
          <g id="Grupo_145648" data-name="Grupo 145648">
            <g id="Grupo_145647" data-name="Grupo 145647" clip-path="url(#clip-path-3)">
              <path id="Trazado_151647" data-name="Trazado 151647" d="M92.091,95.908c-1.506.655-2.464,3.258-2.139,5.814a4.265,4.265,0,0,0,2.418,3.568A41.763,41.763,0,0,0,93.252,99a12.2,12.2,0,0,0-.122-3.389,2.733,2.733,0,0,0-1.039.295" fill="#0f0f0f"/>
            </g>
          </g>
        </g>
        <path id="Trazado_151648" data-name="Trazado 151648" d="M74.5,80.866s-4.8-5.816,3.216-7.938A9.846,9.846,0,0,0,80.459,70.4c1.51-2.056,1.491-5.133,3.4-4.431,1.535.566-.138,6.093-2.518,8.076S74.5,80.866,74.5,80.866" fill="#f5a489"/>
        <path id="Trazado_151649" data-name="Trazado 151649" d="M75.342,74.009a10.291,10.291,0,0,0,4.727-6.3c.386-1.676,1.229-1.762,1.565-1.682.455.107.6.674.625,1.141A7.534,7.534,0,0,1,79.9,72.921" fill="#f5a489"/>
        <path id="Trazado_151650" data-name="Trazado 151650" d="M80.613,74.008a8.7,8.7,0,0,0,2.851-5.028,2.843,2.843,0,0,1,.333-1.06.723.723,0,0,1,.956-.244,1.668,1.668,0,0,1,.6,1.509c-.052,2.463-1.2,5.333-3.016,6.468" fill="#f5a489"/>
        <path id="Trazado_151651" data-name="Trazado 151651" d="M81.676,73.033a10.339,10.339,0,0,0,1.4-2.871c.14-.416.28-.831.438-1.241a2.232,2.232,0,0,1,.8-1.2c.2-.121.017-.433-.182-.312a4.1,4.1,0,0,0-1.309,2.357,10.875,10.875,0,0,1-1.462,3.081c-.138.187.175.367.311.182" fill="#0f0f0f"/>
        <path id="Trazado_151652" data-name="Trazado 151652" d="M79.813,72.832a19.27,19.27,0,0,0,1.849-3.848,18.792,18.792,0,0,1,.715-2.194c.1-.209-.212-.392-.311-.182a17.521,17.521,0,0,0-.718,2.179A18.823,18.823,0,0,1,79.5,72.65a.18.18,0,0,0,.311.182" fill="#0f0f0f"/>
        <path id="Trazado_151653" data-name="Trazado 151653" d="M73.454,79.035c-.821-2.338-.318-5.469.167-7.221A1.991,1.991,0,0,1,74,71a.757.757,0,0,1,.811-.25,1.029,1.029,0,0,1,.5.623,5.417,5.417,0,0,1-.223,4.444" fill="#f5a489"/>
        <path id="Trazado_151654" data-name="Trazado 151654" d="M76.94,78.347a2.13,2.13,0,0,1,1.95-2.6.181.181,0,0,0,0-.361,2.5,2.5,0,0,0-2.3,3.06.181.181,0,0,0,.348-.1" fill="#0f0f0f"/>
        <path id="Trazado_151655" data-name="Trazado 151655" d="M74.331,74.1a8.031,8.031,0,0,0,3.094-2.839,20.23,20.23,0,0,0,1.21-3.115,2.161,2.161,0,0,1,.471-.881.77.77,0,0,1,.919-.161,1.071,1.071,0,0,1,.32,1.005,7.248,7.248,0,0,1-3.212,5.475" fill="#f5a489"/>
        <path id="Trazado_151656" data-name="Trazado 151656" d="M78.418,72.355a15.948,15.948,0,0,0,1.92-4.878.18.18,0,0,0-.347-.095,15.684,15.684,0,0,1-1.885,4.791c-.135.189.178.369.312.182" fill="#0f0f0f"/>
        <path id="Trazado_151657" data-name="Trazado 151657" d="M57.2,142.689,61.66,162.4s-22.207,1.31-33.419-9.857c0,0-8.128-44.464,18.071-41.622C59.386,112.344,66.458,127.5,57.2,142.689" fill="#f7f1e6"/>
        <path id="Trazado_151658" data-name="Trazado 151658" d="M53.725,112.209l.07-1.987s4.789,1.554,5.266-2.705c.83-7.42,1.483-9.384-1.317-11.976S46.8,95.386,46.6,101.652l-.519,9.083a6.719,6.719,0,0,0,3.319,1.56,9.577,9.577,0,0,0,4.323-.086" fill="#f5a489"/>
        <path id="Trazado_151659" data-name="Trazado 151659" d="M54.229,102.2c-.06.294,0,.554.133.579s.289-.192.348-.486,0-.554-.135-.579-.288.192-.346.486" fill="#0f0f0f"/>
        <path id="Trazado_151660" data-name="Trazado 151660" d="M58.029,102.907c-.059.294,0,.554.134.579s.289-.192.348-.486,0-.554-.135-.579-.288.192-.347.486" fill="#0f0f0f"/>
        <path id="Trazado_151661" data-name="Trazado 151661" d="M53.957,110.251a8.081,8.081,0,0,1-3.973-2.665l3.741,4.752Z" fill="#0f0f0f"/>
        <g id="Grupo_145652" data-name="Grupo 145652" style="mix-blend-mode: soft-light;isolation: isolate">
          <g id="Grupo_145651" data-name="Grupo 145651">
            <g id="Grupo_145650" data-name="Grupo 145650" clip-path="url(#clip-path-4)">
              <path id="Trazado_151662" data-name="Trazado 151662" d="M48.491,103.055a2.629,2.629,0,0,1,3.225-1.8,2.576,2.576,0,0,1,1.835,3.172,2.63,2.63,0,0,1-3.226,1.8,2.574,2.574,0,0,1-1.834-3.171" fill="#0f0f0f"/>
            </g>
          </g>
        </g>
        <path id="Trazado_151663" data-name="Trazado 151663" d="M58.2,105.024a2.572,2.572,0,0,1,1.336-1.6c-.13,1.155-.3,2.493-.478,4.1-.006.053-.02.1-.028.147a2.549,2.549,0,0,1-.83-2.64" fill="#ffb81f"/>
        <g id="Grupo_145655" data-name="Grupo 145655" style="mix-blend-mode: soft-light;isolation: isolate">
          <g id="Grupo_145654" data-name="Grupo 145654">
            <g id="Grupo_145653" data-name="Grupo 145653" clip-path="url(#clip-path-5)">
              <path id="Trazado_151664" data-name="Trazado 151664" d="M58.2,105.024a2.572,2.572,0,0,1,1.336-1.6c-.13,1.155-.3,2.493-.478,4.1-.006.053-.02.1-.028.147a2.549,2.549,0,0,1-.83-2.64" fill="#0f0f0f"/>
            </g>
          </g>
        </g>
        <g id="Grupo_145658" data-name="Grupo 145658" style="mix-blend-mode: soft-light;isolation: isolate">
          <g id="Grupo_145657" data-name="Grupo 145657">
            <g id="Grupo_145656" data-name="Grupo 145656" clip-path="url(#clip-path-6)">
              <path id="Trazado_151665" data-name="Trazado 151665" d="M57.332,100.782l-.671-.181-1.033,3.7,1.61.436Z" fill="#0f0f0f"/>
            </g>
          </g>
        </g>
        <path id="Trazado_151666" data-name="Trazado 151666" d="M54.4,99.826c-.017.2.262.391.623.42s.667-.111.684-.314-.261-.391-.622-.42-.668.111-.685.314" fill="#0f0f0f"/>
        <path id="Trazado_151667" data-name="Trazado 151667" d="M58.188,100.465c-.113.17.041.467.344.661s.641.215.754.044-.041-.466-.344-.661-.641-.214-.754-.044" fill="#0f0f0f"/>
        <path id="Trazado_151668" data-name="Trazado 151668" d="M44.131,102.055a2.3,2.3,0,0,1,2.826-1.58,2.255,2.255,0,0,1,1.607,2.778,2.3,2.3,0,0,1-2.826,1.581,2.257,2.257,0,0,1-1.607-2.779" fill="#f5a489"/>
        <path id="Trazado_151669" data-name="Trazado 151669" d="M46.1,101.806a1.018,1.018,0,0,1,.215.046.951.951,0,0,1,.2.091,1.215,1.215,0,0,1,.347.308,1.189,1.189,0,0,1,.2.4,1,1,0,0,1,.019.437.191.191,0,0,0,.131.23.189.189,0,0,0,.23-.131,1.517,1.517,0,0,0-1.342-1.758.188.188,0,0,0-.187.187.191.191,0,0,0,.187.187" fill="#0f0f0f"/>
        <path id="Trazado_151670" data-name="Trazado 151670" d="M58.57,95.958a3.4,3.4,0,0,1-2.893,2.059c-1.243.2-2.526.057-3.758.31a3.139,3.139,0,0,0-2.662,2.292,2.317,2.317,0,0,1-.2.982.954.954,0,0,1-.994.348,1.683,1.683,0,0,1-.908-.617,3.322,3.322,0,0,1-.586-2.75,5.6,5.6,0,0,1,1.373-2.533,7.593,7.593,0,0,1,4.878-2.562,5.97,5.97,0,0,1,5.064,1.967" fill="#251f60"/>
        <path id="Trazado_151671" data-name="Trazado 151671" d="M58.672,111.136c-.978,2.157-3.322,3.315-5.508,3.878a12.138,12.138,0,0,1-3.179.406,9.2,9.2,0,0,1-3.7-.908,10.718,10.718,0,0,1-4-3.168c-.187-.243-.607,0-.418.244a10.968,10.968,0,0,0,7.645,4.3,12.233,12.233,0,0,0,6.808-1.622,6.628,6.628,0,0,0,2.769-2.883c.128-.281-.289-.527-.417-.244" fill="#9437bf"/>
        <path id="Trazado_151672" data-name="Trazado 151672" d="M54.162,105.019a1.883,1.883,0,0,0,1.687,1.687.17.17,0,0,0,.169-.169.173.173,0,0,0-.169-.169,1.544,1.544,0,0,1-1.349-1.349.173.173,0,0,0-.169-.169.171.171,0,0,0-.169.169" fill="#0f0f0f"/>
        <path id="Trazado_151673" data-name="Trazado 151673" d="M213.309,66.939l3.627,19.782s23.009,10.371,34.9-1.512c0,0,8.681-40.216-20.771-45.679-21.04-3.9-21.838,6.161-17.759,27.409" fill="#43a99b"/>
        <path id="Trazado_151674" data-name="Trazado 151674" d="M229.456,54.647a24.721,24.721,0,0,1-21.443-7.484c-7.684-7.938-11.284-18.765-19.684-13.591-4.759,2.932-5.033,15.251-1.484,24.27,2.343,5.956-11.266,10.512-14.666-9.858-3.58-21.447,7.826-28.237,12.517-30.568,5.982-2.973,21.467-2.474,31.564,15.961,11.332,20.691,13.2,21.27,13.2,21.27" fill="#f5a489"/>
        <path id="Trazado_151675" data-name="Trazado 151675" d="M197.189,34.534c2.943,2.824,6.7,8.373,10.824,12.629,9.6,9.922,20.77,8.132,20.77,8.132s11.2-1.337-12.085-23.935c-3.607-3.5-5.575-5.773-8.4-8.328a32.7,32.7,0,0,0-6.369,5.013,30.242,30.242,0,0,0-4.738,6.489" fill="#43a99b"/>
        <path id="Trazado_151676" data-name="Trazado 151676" d="M184.326,48.412a48.951,48.951,0,0,0,3.426,10.422c2.206,5.642,3.464,6.889,2.371,7.752s-3.029-2.275-4.052-4.68c-.058-.135-.112-.268-.164-.4l-.038.014c.519,1.187.5,2.162-.205,2.479a1.768,1.768,0,0,1-1.8-.619,1.4,1.4,0,0,1-.621,1.472,1.676,1.676,0,0,1-1.683-.513c.028.616-.131,1.182-.563,1.29-2.114.529-5.823-7.833-7.486-12.029" fill="#f5a489"/>
        <g id="Grupo_145661" data-name="Grupo 145661" style="mix-blend-mode: soft-light;isolation: isolate">
          <g id="Grupo_145660" data-name="Grupo 145660">
            <g id="Grupo_145659" data-name="Grupo 145659" clip-path="url(#clip-path-7)">
              <path id="Trazado_151677" data-name="Trazado 151677" d="M188.232,17.242c0,1.73-2.157,3.747-4.81,4.5-1.94.554-3.6.278-4.36-.587a24.929,24.929,0,0,1,5.634-3.743,12.777,12.777,0,0,1,3.314-1.057,1.772,1.772,0,0,1,.222.883" fill="#0f0f0f"/>
            </g>
          </g>
        </g>
        <path id="Trazado_151678" data-name="Trazado 151678" d="M222.986,41.8l-.527-3.576s-5.759,1.468-5.965-3.663c-.36-8.939-.964-11.34,2.542-14.21s12.879.709,12.59,11.431l.2,8.5a9.329,9.329,0,0,1-4.294,2.273,6.594,6.594,0,0,1-4.546-.758" fill="#f5a489"/>
        <path id="Trazado_151679" data-name="Trazado 151679" d="M222.684,28.569c.019.359-.094.657-.254.665s-.3-.275-.324-.634.1-.657.254-.665.3.275.324.634" fill="#0f0f0f"/>
        <path id="Trazado_151680" data-name="Trazado 151680" d="M218.132,28.789c.018.359-.1.657-.255.665s-.3-.275-.324-.634.094-.657.254-.665.3.275.325.634" fill="#0f0f0f"/>
        <path id="Trazado_151681" data-name="Trazado 151681" d="M222.458,38.227a9.183,9.183,0,0,0,4.7-2.84l-4.314,5.647Z" fill="#0f0f0f"/>
        <g id="Grupo_145664" data-name="Grupo 145664" style="mix-blend-mode: soft-light;isolation: isolate">
          <g id="Grupo_145663" data-name="Grupo 145663">
            <g id="Grupo_145662" data-name="Grupo 145662" clip-path="url(#clip-path-8)">
              <path id="Trazado_151682" data-name="Trazado 151682" d="M229.272,30.814a2.807,2.807,0,1,0-2.425,3.143,2.806,2.806,0,0,0,2.425-3.143" fill="#071d24"/>
            </g>
          </g>
        </g>
        <path id="Trazado_151683" data-name="Trazado 151683" d="M217.709,31.654a3.072,3.072,0,0,0-1.437-2.027c.056,1.392.144,3,.221,4.937,0,.065.016.116.021.178a3.083,3.083,0,0,0,1.195-3.088" fill="#ffb22e"/>
        <g id="Grupo_145667" data-name="Grupo 145667" style="mix-blend-mode: soft-light;isolation: isolate">
          <g id="Grupo_145666" data-name="Grupo 145666">
            <g id="Grupo_145665" data-name="Grupo 145665" clip-path="url(#clip-path-9)">
              <path id="Trazado_151684" data-name="Trazado 151684" d="M217.709,31.654a3.072,3.072,0,0,0-1.437-2.027c.056,1.392.144,3,.221,4.937,0,.065.016.116.021.178a3.083,3.083,0,0,0,1.195-3.088" fill="#071d24"/>
            </g>
          </g>
        </g>
        <g id="Grupo_145670" data-name="Grupo 145670" style="mix-blend-mode: soft-light;isolation: isolate">
          <g id="Grupo_145669" data-name="Grupo 145669">
            <g id="Grupo_145668" data-name="Grupo 145668" clip-path="url(#clip-path-10)">
              <path id="Trazado_151685" data-name="Trazado 151685" d="M219.3,26.382l.813-.1.589,4.555-1.953.253Z" fill="#071d24"/>
            </g>
          </g>
        </g>
        <path id="Trazado_151686" data-name="Trazado 151686" d="M222.88,25.729c-.014.244-.371.421-.8.4s-.76-.241-.746-.485.371-.421.8-.4.76.242.746.485" fill="#0f0f0f"/>
        <path id="Trazado_151687" data-name="Trazado 151687" d="M218.353,25.865c.1.221-.126.547-.512.728s-.784.15-.887-.071.125-.547.512-.728.783-.15.887.071" fill="#0f0f0f"/>
        <path id="Trazado_151688" data-name="Trazado 151688" d="M228.916,30.081a1.82,1.82,0,0,1-2.166-.943,7.085,7.085,0,0,1-.615-2.5,3.542,3.542,0,0,0-1.051-2.305,3.386,3.386,0,0,0-2.285-.554c-2.81.112-5.752,1.35-8.324.212-2.218-.983-3.394-3.489-3.682-5.9a6.62,6.62,0,0,1,.483-3.774,3.426,3.426,0,0,1,3.067-1.977c2.706.145,4.017,4.064,6.724,4.19a6.513,6.513,0,0,0,3.042-1.022,6.35,6.35,0,0,1,3.909-.785,4.076,4.076,0,0,1,3.209,3.744c.031.9-.225,1.888.259,2.647.663,1.038,2.3.993,3.075,1.948a2.186,2.186,0,0,1,.255,2.109,4.392,4.392,0,0,1-1.335,1.748,2.938,2.938,0,0,0-.675.693,4.28,4.28,0,0,0-.274,1.791,2.25,2.25,0,0,1-1.627,2.037c-.916.175-1.942-.747-1.644-1.63" fill="#251f60"/>
        <path id="Trazado_151689" data-name="Trazado 151689" d="M234.37,28.874a2.709,2.709,0,1,0-2.12,3.191,2.708,2.708,0,0,0,2.12-3.191" fill="#f5a489"/>
        <path id="Trazado_151690" data-name="Trazado 151690" d="M221.1,32.966a1.184,1.184,0,0,1-1.067-.269c-.088-.1-.248-.329-.046-.483s.524.027.79-.042.506-.523.869-.465c.273.043.4.175.431.4.04.325-.336.739-.927.864" fill="#0f0f0f"/>
        <path id="Trazado_151691" data-name="Trazado 151691" d="M232.345,28.2a1.716,1.716,0,0,0-1.948,1.37.246.246,0,0,0,.166.293.241.241,0,0,0,.294-.166,1.315,1.315,0,0,1,.066-.263c0-.009.03-.068.011-.027.009-.02.019-.04.029-.061s.039-.072.061-.107l.038-.057c.005-.007.041-.055.028-.039s.021-.025.025-.029.03-.034.045-.05c.031-.034.064-.065.1-.1l.051-.044c.055-.046-.035.023.024-.018a1.82,1.82,0,0,1,.223-.136l.062-.029c.023-.01-.024.008.016-.006s.086-.03.129-.043.088-.022.132-.03c0,0,.076-.009.026,0l.067-.006a1.235,1.235,0,0,1,.136,0l.056,0,.034,0c-.026,0-.024,0,0,0a.246.246,0,0,0,.294-.167.24.24,0,0,0-.167-.293" fill="#071d24"/>
        <path id="Trazado_151692" data-name="Trazado 151692" d="M197.189,34.534s12.41,14.342,14.683,21.919c0,0,3.536,12.882,3.536,12.124V41.8l-16.165-7.577" fill="#43a99b"/>
        <path id="Trazado_151693" data-name="Trazado 151693" d="M200.082,37.295a33.469,33.469,0,0,1,8.161-8.962q1.464-1.126,3.034-2.1c.265-.166.021-.588-.246-.421a36.143,36.143,0,0,0-9.445,8.454,31.37,31.37,0,0,0-1.925,2.788c-.164.268.257.513.421.246" fill="#eeeff2"/>
        <path id="Trazado_151694" data-name="Trazado 151694" d="M235.419,61.564q1.072,7.89,1.382,15.857c.012.312.5.314.487,0q-.244-6.255-.958-12.479-.2-1.755-.441-3.508c-.042-.309-.512-.177-.47.13" fill="#eeeff2"/>
        <path id="Trazado_151695" data-name="Trazado 151695" d="M221.385,43.711a12.844,12.844,0,0,0,12.359-.417,11.767,11.767,0,0,0,2.812-2.319c.207-.234-.136-.58-.344-.344a12.347,12.347,0,0,1-11.251,3.8,11.347,11.347,0,0,1-3.33-1.141c-.277-.147-.523.274-.246.421" fill="#eeeff2"/>
        <path id="Trazado_151696" data-name="Trazado 151696" d="M213.2,48.763a16.377,16.377,0,0,0-1.794,9.2c.031.309.518.312.487,0a15.905,15.905,0,0,1,1.728-8.957c.145-.278-.275-.524-.421-.246" fill="#eeeff2"/>
        <path id="Trazado_151697" data-name="Trazado 151697" d="M70.466,276.443c0,1.225-13.508,2.218-30.171,2.218s-30.171-.993-30.171-2.218,13.508-2.218,30.171-2.218,30.171.993,30.171,2.218" fill="#f4c551"/>
        <path id="Trazado_151698" data-name="Trazado 151698" d="M317.07,282.717c0,1.225-13.508,2.218-30.171,2.218s-30.171-.993-30.171-2.218S270.236,280.5,286.9,280.5s30.171.993,30.171,2.218" fill="#f4c551"/>
        <path id="Trazado_151699" data-name="Trazado 151699" d="M37.974,264.105,30,262.941l-1.028,11.683,2.978.262,1.367-2.419.506,2.122,21.073,1.854s-3.538-7.006-14.357-4.726Z" fill="#ff8578"/>
        <path id="Trazado_151700" data-name="Trazado 151700" d="M78.35,258.179l-8.022-.8L69.837,269.1l2.987.126,1.254-2.479.6,2.1,21.136.887s-3.856-6.837-14.559-4.063Z" fill="#9437bf"/>
        <path id="Trazado_151701" data-name="Trazado 151701" d="M56.5,201.9c4.236,9.569,14.962,41.84,12.312,59.833,0,0,9.889,2.412,16.681,0,0,0,1.959-14.472,2.383-31.766s-8.64-37.234-15.007-49.7C70.23,175.1,67.742,170,65.621,165.537" fill="#3592f0"/>
        <rect id="Rectángulo_39197" data-name="Rectángulo 39197" width="194.344" height="178.93" transform="translate(78.213 31.728)" fill="#fff5bd"/>
        <path id="Trazado_151702" data-name="Trazado 151702" d="M257.678,53.27H93.093a5.733,5.733,0,0,0,0,11.465H257.678a5.733,5.733,0,1,0,0-11.465" fill="#fff"/>
        <path id="Trazado_151703" data-name="Trazado 151703" d="M257.678,69.174H93.093a5.732,5.732,0,0,0,0,11.465H257.678a5.732,5.732,0,1,0,0-11.465" fill="#fff"/>
        <path id="Trazado_151704" data-name="Trazado 151704" d="M255.66,84.708H95.11a7.75,7.75,0,0,0-7.75,7.75v64.388a7.75,7.75,0,0,0,7.75,7.75H255.66a7.75,7.75,0,0,0,7.75-7.75V92.458a7.75,7.75,0,0,0-7.75-7.75" fill="#fff"/>
        <path id="Trazado_151705" data-name="Trazado 151705" d="M285.485,269.128H65.285V120.687l110.1,92.863,110.1-92.863Z" fill="#ffb81f"/>
        <path id="Trazado_151706" data-name="Trazado 151706" d="M285.485,269.128H65.285V120.687l110.1,92.863,110.1-92.863Z" fill="#6bbeb2"/>
        <path id="Trazado_151707" data-name="Trazado 151707" d="M65.285,269.831l110.1-80.9,110.1,80.9Z" fill="#ffb81f"/>
        <path id="Trazado_151708" data-name="Trazado 151708" d="M65.285,269.831l110.1-80.9,110.1,80.9Z" fill="#43a99b"/>
        <path id="Trazado_151709" data-name="Trazado 151709" d="M350.619,195.3A17.314,17.314,0,1,0,333.3,212.611,17.314,17.314,0,0,0,350.619,195.3" fill="#43a99b"/>
        <path id="Trazado_151711" data-name="Trazado 151711" d="M65.621,165.537c-3-6.562-5.274-11.813-6.19-14.085,0,0-17.129,8.914-31.137.983,0,0-4.94,12.8-.849,30.887,5.619,24.846,10.73,51.991.227,82.051,0,0,7.393,3.826,14.007,1.53,0,0,16.539-39.142,15.083-61.648-.684-10.565,5.394,8.347,7.679,17.21" fill="#251f60"/>
        <path id="Trazado_151712" data-name="Trazado 151712" d="M31.182,154.795c-1.791,8.237-.835,16.727.746,24.915,1.666,8.628,4.062,17.115,5.277,25.828a141.226,141.226,0,0,1,1.4,17.122A106.313,106.313,0,0,1,37.37,240.4a182.972,182.972,0,0,1-5.147,22.649q-.479,1.676-.976,3.344a.242.242,0,0,0,.466.129,203.526,203.526,0,0,0,5.724-23.532A110.247,110.247,0,0,0,39.1,224.969a135.882,135.882,0,0,0-1.043-16.452c-.98-8.44-3.07-16.65-4.849-24.942-1.8-8.365-3.3-17.045-2.109-25.606.142-1.022.326-2.037.545-3.046.066-.3-.4-.432-.466-.128" fill="#eeeff2"/>
        <path id="Trazado_151713" data-name="Trazado 151713" d="M40.087,155.519a11.187,11.187,0,0,1-9.249,4.807.242.242,0,0,0,0,.484,11.689,11.689,0,0,0,9.666-5.047c.175-.258-.243-.5-.417-.244" fill="#eeeff2"/>
        <path id="Trazado_151714" data-name="Trazado 151714" d="M42.986,156.018a13.036,13.036,0,0,1-9.092,6.557,16.622,16.622,0,0,1-3.24.317.242.242,0,0,0,0,.484,14.773,14.773,0,0,0,10.7-4.253,12.756,12.756,0,0,0,2.05-2.861c.146-.274-.271-.519-.417-.244" fill="#eeeff2"/>
        <path id="Trazado_151715" data-name="Trazado 151715" d="M26.977,157.171a3.7,3.7,0,0,0,1.821.724.243.243,0,0,0,.242-.241.248.248,0,0,0-.242-.242,3.267,3.267,0,0,1-1.577-.658.243.243,0,0,0-.331.086.248.248,0,0,0,.087.331" fill="#eeeff2"/>
        <path id="Trazado_151716" data-name="Trazado 151716" d="M28.24,159.443a3.247,3.247,0,0,1-1.724-.549.242.242,0,0,0-.244.418,3.726,3.726,0,0,0,1.968.614.242.242,0,0,0,0-.483" fill="#eeeff2"/>
        <path id="Trazado_151717" data-name="Trazado 151717" d="M50.435,154.9a40.577,40.577,0,0,1-.1,13.528c-.054.3.412.435.466.128a41.283,41.283,0,0,0,.1-13.784c-.05-.307-.515-.177-.466.128" fill="#eeeff2"/>
        <path id="Trazado_151718" data-name="Trazado 151718" d="M60.734,154.716a4.5,4.5,0,0,1-3.809-1.741c-.192-.244-.532.1-.342.342a4.938,4.938,0,0,0,4.151,1.882c.309-.021.311-.505,0-.483" fill="#eeeff2"/>
        <path id="Trazado_151719" data-name="Trazado 151719" d="M61.885,156.889a7.839,7.839,0,0,1-7.328-3.305c-.173-.256-.592-.015-.417.244a8.31,8.31,0,0,0,7.745,3.544c.305-.036.309-.52,0-.483" fill="#eeeff2"/>
        <path id="Trazado_151720" data-name="Trazado 151720" d="M285.351,202.822a386.641,386.641,0,0,0,42.983-1.486c3.946-.357,9.242-2.69,7.976-6.444a4.917,4.917,0,0,0-2.969-2.751c-5.88-2.365-13.786,1.537-18.345-2.865-3.051-2.947-3.06-8.564-6.86-10.45-3.446-1.711-7.714.9-11.38-.266-2.382-.759-3.975-2.932-5.512-4.9-2.878-3.692-6.262-7.194-10.59-8.98s-9.774-1.5-13.161,1.736c-3.45,3.293-3.937,8.508-5.29,13.082s-4.993,9.49-9.708,8.765c-2.771-.426-5.64-2.749-8.036-1.294-2.5,1.518-1.876,5.866-4.4,7.351a23.77,23.77,0,0,1-7.222,1.539c-4.215-.09-9.015.279-9.135,4.31s5.256,3.523,8.059,3.477l51.844-.857" fill="#f7f1e6" fill-rule="evenodd"/>
        <path id="Trazado_151721" data-name="Trazado 151721" d="M237.292,261.462,231.27,256.1l-7.284,9.192,2.343,1.856,2.472-1.268-.744,2.05,16.581,13.139s.9-7.8-9.393-11.843Z" fill="#251f60"/>
        <path id="Trazado_151722" data-name="Trazado 151722" d="M292.886,270.451l-8.046-.5-.056,11.728,2.989.014,1.162-2.524.68,2.073,21.155.1s-4.107-6.688-14.7-3.519Z" fill="#251f60"/>
        <path id="Trazado_151723" data-name="Trazado 151723" d="M257.452,169.4s3.7,14.367,3.653,22.977c-.071,12.411-8.2,25.938-11.817,31.993-8.132,13.613-22.359,32.771-22.359,32.771a66.029,66.029,0,0,0,11.824,7.965s29.649-24.576,40.137-44.39L281.9,274.27s10.631.785,14.917-1.873c0,0,4.72-42.735.156-72.769-3.927-25.842-10.646-34.2-10.646-34.2Z" fill="#5263e2"/>
        <path id="Trazado_151724" data-name="Trazado 151724" d="M258.94,176.731l5.166-.911c.274-.048.158-.467-.116-.418l-5.165.91c-.275.049-.159.467.115.419" fill="#eeeff2"/>
        <path id="Trazado_151725" data-name="Trazado 151725" d="M259.407,179.123l4.455-.724c.275-.045.159-.464-.115-.419l-4.455.724c-.276.045-.159.464.115.419" fill="#eeeff2"/>
        <path id="Trazado_151726" data-name="Trazado 151726" d="M268.912,168.48c.705,7.4.977,14.859.983,22.293.006,6.4-.11,12.838-1.719,19.074a72.781,72.781,0,0,1-8.912,19.925A146.639,146.639,0,0,1,246.54,247c-3.8,4.512-7.806,8.844-11.729,13.25q-.575.645-1.143,1.294c-.183.209.123.518.307.307,3.771-4.307,7.682-8.486,11.413-12.829a160.783,160.783,0,0,0,12.884-16.876,79.485,79.485,0,0,0,9.586-19.592,49.866,49.866,0,0,0,2.068-10.1c.281-2.968.355-5.958.39-8.938.087-7.51-.151-15.043-.751-22.53q-.1-1.251-.219-2.5c-.026-.276-.461-.278-.434,0" fill="#eeeff2"/>
        <path id="Trazado_151727" data-name="Trazado 151727" d="M269.625,175.474a7.63,7.63,0,0,0,6.434-8.09c-.019-.278-.453-.28-.435,0a7.2,7.2,0,0,1-6.114,7.671c-.276.044-.159.463.115.419" fill="#eeeff2"/>
        <path id="Trazado_151728" data-name="Trazado 151728" d="M269.764,178.269a10.79,10.79,0,0,0,9.052-10.946.217.217,0,0,0-.434,0,10.359,10.359,0,0,1-8.733,10.527c-.276.045-.159.464.115.419" fill="#eeeff2"/>
        <path id="Trazado_151729" data-name="Trazado 151729" d="M278.89,220.715l.794,15.583s17.61-29.733,4.651-60.5c0,0,7.24,26.295-5.445,44.921" fill="#251f60"/>
        <path id="Trazado_151730" data-name="Trazado 151730" d="M291.334,98.41s3.172,19.9-8.477,11.516l-1.951,10.9-7.367-9.336,4.948-11.3s.247-11.446,12.847-1.778" fill="#f5a489"/>
        <g id="Grupo_145673" data-name="Grupo 145673" style="mix-blend-mode: soft-light;isolation: isolate">
          <g id="Grupo_145672" data-name="Grupo 145672">
            <g id="Grupo_145671" data-name="Grupo 145671" clip-path="url(#clip-path-11)">
              <path id="Trazado_151731" data-name="Trazado 151731" d="M283.578,104.7a2.661,2.661,0,1,1,1.44,3.477,2.661,2.661,0,0,1-1.44-3.477" fill="#151029"/>
            </g>
          </g>
        </g>
        <path id="Trazado_151732" data-name="Trazado 151732" d="M289.065,104.461c-.1.294-.07.567.061.61s.315-.16.412-.454.069-.567-.061-.61-.315.16-.412.454" fill="#151029"/>
        <path id="Trazado_151733" data-name="Trazado 151733" d="M290.327,108.016c-.029,0-.057,0-.086,0h-.017c.03,0-.011,0-.017,0a.969.969,0,0,1-.152-.039l-.04-.015c-.046-.016.036.018-.008,0l-.064-.032a1.364,1.364,0,0,1-.139-.089c-.019-.013.027.023,0,0-.01-.009-.022-.018-.032-.028a.731.731,0,0,1-.057-.054c-.018-.019-.036-.039-.053-.059s-.038-.038-.006-.006a.215.215,0,0,1-.021-.029,1.136,1.136,0,0,1-.079-.135.2.2,0,0,1-.015-.033c.012.046,0,0,0-.007a.79.79,0,0,1-.026-.082.191.191,0,1,0-.369.1,1.251,1.251,0,0,0,1.184.9.192.192,0,0,0,0-.383" fill="#151029"/>
        <path id="Trazado_151734" data-name="Trazado 151734" d="M289.541,102.058c-.043.205.213.433.573.509s.686-.03.729-.236-.213-.433-.573-.508-.686.029-.729.235" fill="#151029"/>
        <path id="Trazado_151735" data-name="Trazado 151735" d="M291.577,102.037l.232.582,1.655,4.339-2.171.265Z" fill="#ffb81f"/>
        <g id="Grupo_145676" data-name="Grupo 145676" style="mix-blend-mode: soft-light;isolation: isolate">
          <g id="Grupo_145675" data-name="Grupo 145675">
            <g id="Grupo_145674" data-name="Grupo 145674" clip-path="url(#clip-path-12)">
              <path id="Trazado_151736" data-name="Trazado 151736" d="M291.577,102.037l.232.582,1.655,4.339-2.171.265Z" fill="#151029"/>
            </g>
          </g>
        </g>
        <path id="Trazado_151737" data-name="Trazado 151737" d="M283.845,110.584l-1.863-1.443.277,4.654Z" fill="#151029"/>
        <path id="Trazado_151738" data-name="Trazado 151738" d="M279.02,103.195c-.362.759.329.272,1.148.077s.3-.064.274-.905.773-.845,1.469-1.327c.647-.448,1.479.111,2.2.427a3.634,3.634,0,0,0,4.674-1.98,2.038,2.038,0,0,1,.319-.673c.37-.418,1.026-.331,1.584-.328a3.389,3.389,0,0,0,3.373-2.7,2.591,2.591,0,0,0-2.829-2.87c-.888.185-1.706.916-2.586.695-1.044-.263-1.3-1.586-1.807-2.536a3.761,3.761,0,0,0-2.96-1.938,1.86,1.86,0,0,0-1.1.2c-.893.534-.769,1.868-1.3,2.766-.725,1.237-2.426,1.347-3.855,1.469s-3.172.738-3.3,2.166c-.087.96.639,1.983.177,2.829a3.623,3.623,0,0,1-1.059.943,3.2,3.2,0,0,0-.412,4.421,2.807,2.807,0,0,1,.752,1.04,2.841,2.841,0,0,1,0,1.091c-.349,2.411,1.462,2.553,2.95,1.916a5.231,5.231,0,0,0,2.364-3.841" fill="#251f60"/>
        <path id="Trazado_151739" data-name="Trazado 151739" d="M279.025,101.467a2.332,2.332,0,1,1,1.262,3.047,2.332,2.332,0,0,1-1.262-3.047" fill="#f5a489"/>
        <path id="Trazado_151740" data-name="Trazado 151740" d="M281.007,101.452a1.172,1.172,0,0,1,.84,1.468.192.192,0,0,0,.37.1,1.559,1.559,0,0,0-1.108-1.939.2.2,0,0,0-.236.134.193.193,0,0,0,.134.235" fill="#151029"/>
        <path id="Trazado_151741" data-name="Trazado 151741" d="M309.944,116.753c1.076,2.054,3.132,8.831,4.211,13.1,2.583,10.214.777,19.8-6.647,24.451s-25.633,3.986-34.033-20.261-1.985-17.932-1.985-17.932,3.338-9.188,10.088-3.539,9.675,29.517,16.854,27.78c3.6-.87,4.183-4.744,3.568-9.335" fill="#f5a489"/>
        <path id="Trazado_151742" data-name="Trazado 151742" d="M268.123,114.964l3.957-4.785c1.928-.64,5.823-.686,9.5,2.39,4.895,4.1,7.629,17.153,11.675,24.077-.478,1.315-3.649,6.161-12.409,11.05a43.189,43.189,0,0,1-7.369-13.657c-3.879-11.2-4.965-15.871-5.352-19.075" fill="#ff8578"/>
        <path id="Trazado_151743" data-name="Trazado 151743" d="M291.412,133.214a40.025,40.025,0,0,1-9.675,8.768q-1.566,1.007-3.222,1.864c-.221.115-.025.45.2.335a40.308,40.308,0,0,0,10.493-7.848q1.308-1.363,2.482-2.845c.153-.193-.119-.469-.274-.274" fill="#eeeff2"/>
        <g id="Grupo_145679" data-name="Grupo 145679" style="mix-blend-mode: soft-light;isolation: isolate">
          <g id="Grupo_145678" data-name="Grupo 145678">
            <g id="Grupo_145677" data-name="Grupo 145677" clip-path="url(#clip-path-13)">
              <path id="Trazado_151744" data-name="Trazado 151744" d="M309.944,116.753c1.076,2.054,3.132,8.831,4.211,13.1,2.583,10.214.777,19.8-6.647,24.451s-25.633,3.986-34.033-20.261-1.985-17.932-1.985-17.932,3.338-9.188,10.088-3.539,9.675,29.517,16.854,27.78c3.6-.87,4.183-4.744,3.568-9.335" fill="#151029"/>
            </g>
          </g>
        </g>
        <path id="Trazado_151745" data-name="Trazado 151745" d="M254.645,128.181c-3.449,10.172-3.816,29.033,3.161,43.906,0,0,19.031-.586,28.27-7.045l-15.7-46.479s18.394-6.864,5.522-8.763c-10.058-1.483-18.143,9.224-21.249,18.381" fill="#ff8578"/>
        <path id="Trazado_151746" data-name="Trazado 151746" d="M281.948,141.322,268.671,128.48s-6.342,21.556,6.351,33.449c4.476,4.194,8.986,5.789,13.05,5.956l-3.95-7.777Z" fill="#0f0f0f"/>
        <path id="Trazado_151747" data-name="Trazado 151747" d="M310.7,129.619c.338,2.407-.022,9.825-.462,14.418-1.051,11-6.217,19.832-15.187,21.8s-26.718-5.1-26.461-32.012,4.364-18.407,4.364-18.407,6.537-7.9,11.21.064-.856,32.56,6.846,33.376c6.615.7,7.61-10.441,7.907-18.829" fill="#f5a489"/>
        <g id="Grupo_145682" data-name="Grupo 145682" style="mix-blend-mode: soft-light;isolation: isolate">
          <g id="Grupo_145681" data-name="Grupo 145681">
            <g id="Grupo_145680" data-name="Grupo 145680" clip-path="url(#clip-path-14)">
              <path id="Trazado_151748" data-name="Trazado 151748" d="M291.786,161.887c2.71-.015,4.915,1.516,4.925,3.419,0,.027,0,.054-.005.081q-.8.263-1.654.451a16.985,16.985,0,0,1-8.151-.447c0-.01,0-.02,0-.03-.011-1.9,2.177-3.459,4.887-3.474" fill="#151029"/>
            </g>
          </g>
        </g>
        <path id="Trazado_151749" data-name="Trazado 151749" d="M300.282,131.573l-1.289-.83,9.833-15.268,1.686,1.086Z" fill="#0f0f0f"/>
        <path id="Trazado_151750" data-name="Trazado 151750" d="M299.569,133.22a13.576,13.576,0,0,1-.73-4.324,3.993,3.993,0,0,1,1.517-2.985,1.107,1.107,0,0,1,1.217-.181.971.971,0,0,1,.3,1.009c-.077.364-.268.693-.381,1.048a6,6,0,0,0,.382,3.362,3.583,3.583,0,0,1-.284,3.282" fill="#f5a489"/>
        <path id="Trazado_151751" data-name="Trazado 151751" d="M301.026,131.927h0a1.175,1.175,0,0,1-.259-1.64l6.24-8.571a1.174,1.174,0,1,1,1.9,1.382l-6.239,8.57a1.173,1.173,0,0,1-1.64.259" fill="#f5a489"/>
        <path id="Trazado_151752" data-name="Trazado 151752" d="M302.714,133h0a1.173,1.173,0,0,1-.259-1.64l5.241-7.2a1.172,1.172,0,0,1,1.639-.258h0a1.174,1.174,0,0,1,.258,1.64l-5.241,7.2a1.173,1.173,0,0,1-1.639.258" fill="#f5a489"/>
        <path id="Trazado_151753" data-name="Trazado 151753" d="M303.391,135.563h0a1.175,1.175,0,0,1-.258-1.641l5.24-7.2a1.175,1.175,0,0,1,1.9,1.383l-5.241,7.2a1.174,1.174,0,0,1-1.64.258" fill="#f5a489"/>
        <path id="Trazado_151754" data-name="Trazado 151754" d="M303.611,137.958h0a1.174,1.174,0,0,1-.258-1.64l5.24-7.2a1.174,1.174,0,1,1,1.9,1.381l-5.241,7.2a1.174,1.174,0,0,1-1.64.259" fill="#f5a489"/>
        <path id="Trazado_151755" data-name="Trazado 151755" d="M270.034,113.1l5.6-3.329c2.129.048,5.991,1.376,8.535,5.71,3.389,5.772,1.484,19.629,3.037,27.893-.936,1.13-5.776,4.8-16.151,6.535a45.29,45.29,0,0,1-2.46-16.085c.119-12.423.7-17.423,1.443-20.724" fill="#ff8578"/>
        <path id="Trazado_151756" data-name="Trazado 151756" d="M286.579,139.345a41.937,41.937,0,0,1-12.677,5.248q-1.887.438-3.809.7c-.258.035-.148.427.108.392a42.28,42.28,0,0,0,13.156-4.067q1.758-.879,3.427-1.92c.222-.138.018-.49-.2-.351" fill="#eeeff2"/>
        <path id="Trazado_151757" data-name="Trazado 151757" d="M45.967,121.206s.774,9.344,10.119,16.847,21.43.445,25.21-2.773L89.962,142a37.843,37.843,0,0,1-19.436,12.034c-14.578,3.627-33.431-3.064-38.568-27.676Z" fill="#f5a489"/>
        <path id="Trazado_151758" data-name="Trazado 151758" d="M87.866,144.261c2.447-2.318,5.3-5.987,4.381-7.241a1.266,1.266,0,0,0-.815-.441c.389-.7.624-1.439.137-1.971a1.486,1.486,0,0,0-1.433-.338c.284-.652.484-1.3.041-1.782a1.472,1.472,0,0,0-1.493-.367,1.5,1.5,0,0,0-.6-1.562c-.791-.469-1.57.266-2.881,1.46-1.111,1.011-3.256,2.846-5.068,4.188" fill="#f5a489"/>
        <path id="Trazado_151759" data-name="Trazado 151759" d="M86.612,134.574a12.109,12.109,0,0,0,2.223-2.366c.127-.177-.166-.346-.292-.171a11.821,11.821,0,0,1-2.17,2.3.17.17,0,0,0,0,.239.173.173,0,0,0,.239,0" fill="#0f0f0f"/>
        <path id="Trazado_151760" data-name="Trazado 151760" d="M89.534,138.978a12.137,12.137,0,0,0,2.223-2.366c.127-.177-.166-.346-.292-.171a11.821,11.821,0,0,1-2.17,2.3.17.17,0,0,0,0,.239.173.173,0,0,0,.239,0" fill="#0f0f0f"/>
        <path id="Trazado_151761" data-name="Trazado 151761" d="M88.109,136.63a12.127,12.127,0,0,0,2.234-2.359c.127-.178-.166-.347-.292-.171a11.811,11.811,0,0,1-2.181,2.291.17.17,0,0,0,0,.239.173.173,0,0,0,.239,0" fill="#0f0f0f"/>
        <path id="Trazado_151762" data-name="Trazado 151762" d="M31.451,123.56c2.514,15.912,9.25,21.346,9.25,21.346a28.764,28.764,0,0,1,12.575-9.453c-4.471-6.273-2.61-10.89-5.457-20.166" fill="#f7f1e6"/>
        <path id="Trazado_151763" data-name="Trazado 151763" d="M51.179,131.509a24.7,24.7,0,0,0-11.286,6.378,21.486,21.486,0,0,0-2.366,2.839c-.185.265.248.515.431.252a22.844,22.844,0,0,1,9.966-7.85,25.432,25.432,0,0,1,3.388-1.137.25.25,0,0,0-.133-.482" fill="#9437bf"/>
        <g id="Grupo_145685" data-name="Grupo 145685" style="mix-blend-mode: soft-light;isolation: isolate">
          <g id="Grupo_145684" data-name="Grupo 145684">
            <g id="Grupo_145683" data-name="Grupo 145683" clip-path="url(#clip-path-15)">
              <path id="Trazado_151764" data-name="Trazado 151764" d="M65.165,153.743c.443-1.637,2.959-2.986,5.62-3.014a4.447,4.447,0,0,1,4.01,1.974,34.142,34.142,0,0,1-9.775,2.147,2.8,2.8,0,0,1,.145-1.107" fill="#0f0f0f"/>
            </g>
          </g>
        </g>
        <path id="Trazado_151765" data-name="Trazado 151765" d="M60.572,123.8a20.447,20.447,0,0,1-.684,12.72,19.731,19.731,0,0,1-1.645,3.281c-.164.265.254.508.418.244a20.89,20.89,0,0,0,3.031-12.685,20.4,20.4,0,0,0-.654-3.688.242.242,0,0,0-.466.128" fill="#eeeff2"/>
        <path id="Trazado_151766" data-name="Trazado 151766" d="M236.878,73.9a34.089,34.089,0,0,0,6.654-.12,29.055,29.055,0,0,0,6.7-1.6,10.772,10.772,0,0,0,2.988-1.662c.242-.2-.1-.542-.345-.344a14.169,14.169,0,0,1-5.764,2.452,30.741,30.741,0,0,1-6.449.9c-1.261.029-2.521-.03-3.779-.108-.313-.02-.312.468,0,.487" fill="#eeeff2"/>
        <path id="Trazado_151767" data-name="Trazado 151767" d="M62.008,217.054s-.1-27.7-11.22-40.412c0,0,5.047,13.62,5.709,25.27,0,0,1.688,4.071,5.511,15.142" fill="#0f0f0f"/>
        <path id="Trazado_151768" data-name="Trazado 151768" d="M50.418,176.836A95.917,95.917,0,0,1,54.054,189.2a100.392,100.392,0,0,1,2.353,14.524,50.2,50.2,0,0,1,.113,7.357c-.02.311.463.31.484,0a62.729,62.729,0,0,0-.872-13.694,116.229,116.229,0,0,0-3.127-14.19c-.626-2.188-1.316-4.36-2.121-6.488-.109-.289-.576-.164-.466.128" fill="#eeeff2"/>
        <path id="Trazado_151769" data-name="Trazado 151769" d="M40.7,144.906a69.308,69.308,0,0,1-8.431-13s7.546,25.419,30.582,27.8l-2.118-4.756s-10.41.164-20.033-10.051" fill="#0f0f0f"/>
        <path id="Trazado_151770" data-name="Trazado 151770" d="M59.485,120.506a22.194,22.194,0,0,1,2.353,9.816.25.25,0,0,0,.5,0,22.75,22.75,0,0,0-2.422-10.068c-.144-.288-.575-.035-.431.252" fill="#9437bf"/>
        <path id="Trazado_151771" data-name="Trazado 151771" d="M75.408,261.2a283.563,283.563,0,0,1-31.563-.117c-2.9-.172-6.84-1.764-6-4.546a3.61,3.61,0,0,1,2.116-2.085c4.259-1.868,10.147.815,13.391-2.518,2.172-2.23,2.051-6.351,4.8-7.82,2.489-1.333,5.679.487,8.342-.453,1.73-.611,2.849-2.241,3.932-3.722,2.027-2.773,4.43-5.419,7.564-6.827s7.136-1.319,9.694.976c2.605,2.337,3.08,6.152,4.176,9.476s3.878,6.848,7.32,6.21c2.023-.376,4.075-2.144,5.866-1.132,1.869,1.057,1.509,4.261,3.391,5.293a5.683,5.683,0,0,0,3.05.238c3.09-.162,8.042,1.209,8.119,3.712s-2.813,2.674-4.871,2.7l-38.048.545" fill="#f7f1e6" fill-rule="evenodd"/>
        <path id="Trazado_151772" data-name="Trazado 151772" d="M5.595,122.249a3.87,3.87,0,1,0,2.447,4.9A3.872,3.872,0,0,0,5.595,122.249Z" fill="none" stroke="#fff" stroke-miterlimit="10" stroke-width="1"/>
        <path id="Trazado_151773" data-name="Trazado 151773" d="M336.634,147.487a3.87,3.87,0,1,0,2.447,4.9A3.871,3.871,0,0,0,336.634,147.487Z" fill="none" stroke="#f7f1e6" stroke-miterlimit="10" stroke-width="1"/>
        <path id="Trazado_151775" data-name="Trazado 151775" d="M196.456,2.437a2.53,2.53,0,1,0-2.434,2.623,2.53,2.53,0,0,0,2.434-2.623" fill="#7181f4"/>
      </g>
    </g>
  </g>
</svg>
