<svg xmlns="http://www.w3.org/2000/svg" xmlns:xlink="http://www.w3.org/1999/xlink" width="715" height="561.612" viewBox="0 0 715 561.612">
  <defs>
    <clipPath id="clip-path">
      <path id="Trazado_149962" data-name="Trazado 149962" d="M138.161,216.541A121.534,121.534,0,0,0,168.806,297.4,122.016,122.016,0,0,0,348.444,132.29a122.02,122.02,0,0,0-210.283,84.251" transform="translate(-138.161 -94.522)" fill="none"/>
    </clipPath>
    <radialGradient id="radial-gradient" cx="0.486" cy="0.045" r="1.04" gradientTransform="matrix(0, 1, 1, 0, -2.105, 2.105)" gradientUnits="objectBoundingBox">
      <stop offset="0" stop-color="#f2f2f3"/>
      <stop offset="0.397" stop-color="#f6f6f6"/>
      <stop offset="0.715" stop-color="#fff"/>
      <stop offset="1" stop-color="#fff"/>
    </radialGradient>
    <clipPath id="clip-path-2">
      <path id="Trazado_149966" data-name="Trazado 149966" d="M346.62,146.152a63.943,63.943,0,0,0,94.14,86.525,63.943,63.943,0,0,0-94.14-86.525" transform="translate(-330.564 -126.359)" fill="none"/>
    </clipPath>
    <radialGradient id="radial-gradient-2" cx="0.955" cy="0.514" r="1.04" gradientTransform="translate(-6.093 5.041) rotate(180)" xlink:href="#radial-gradient"/>
    <clipPath id="clip-path-3">
      <path id="Trazado_149970" data-name="Trazado 149970" d="M303.943,257.84a61.093,61.093,0,1,0,42.222-16.454,63.944,63.944,0,0,0-42.222,16.454" transform="translate(-282.82 -241.386)" fill="none"/>
    </clipPath>
    <radialGradient id="radial-gradient-3" cx="1.057" cy="0.519" r="1.382" gradientTransform="translate(-6.287 3.406) rotate(180) scale(0.921 1)" xlink:href="#radial-gradient"/>
    <clipPath id="clip-path-4">
      <path id="Trazado_149974" data-name="Trazado 149974" d="M190.343,301.781a63.943,63.943,0,1,0,42.517-15.673c-.2,0-.393,0-.59,0a63.693,63.693,0,0,0-41.927,15.675" transform="translate(-170.13 -286.106)" fill="none"/>
    </clipPath>
    <radialGradient id="radial-gradient-4" cx="0.046" cy="0.514" r="1.038" gradientTransform="matrix(1, 0, 0, -1, 0, 1.954)" xlink:href="#radial-gradient"/>
    <clipPath id="clip-path-5">
      <path id="Trazado_149978" data-name="Trazado 149978" d="M77.384,258.735A63.941,63.941,0,0,0,124.27,365.5a63.944,63.944,0,0,0-1.213-127.859,63.761,63.761,0,0,0-45.674,21.095" transform="translate(-60.925 -237.64)" fill="none"/>
    </clipPath>
    <radialGradient id="radial-gradient-5" cx="0.481" cy="-0.057" r="1.273" gradientTransform="matrix(0, 1, 1.086, 0, -2.545, 2.403)" xlink:href="#radial-gradient"/>
    <clipPath id="clip-path-6">
      <path id="Trazado_149982" data-name="Trazado 149982" d="M12.726,190.3a63.694,63.694,0,0,0,16.061,42.373,63.943,63.943,0,0,0,94.14-86.525A63.945,63.945,0,0,0,12.726,190.3" transform="translate(-12.726 -126.359)" fill="none"/>
    </clipPath>
    <radialGradient id="radial-gradient-6" cx="0.486" cy="0.045" r="1.04" gradientTransform="matrix(0, 1, 1, 0, -2.499, 2.499)" xlink:href="#radial-gradient"/>
    <clipPath id="clip-path-7">
      <rect id="Rectángulo_39164" data-name="Rectángulo 39164" width="57" height="62" fill="#e55e4f"/>
    </clipPath>
    <clipPath id="clip-path-8">
      <rect id="Rectángulo_39167" data-name="Rectángulo 39167" width="61" height="61" fill="#e55e4f"/>
    </clipPath>
    <clipPath id="clip-path-9">
      <rect id="Rectángulo_39168" data-name="Rectángulo 39168" width="51" height="65" fill="#319688"/>
    </clipPath>
    <clipPath id="clip-path-10">
      <rect id="Rectángulo_39170" data-name="Rectángulo 39170" width="62" height="62" transform="translate(0 0)" fill="#ffc741"/>
    </clipPath>
    <clipPath id="clip-path-11">
      <rect id="Rectángulo_39171" data-name="Rectángulo 39171" width="59.705" height="59.7" fill="#ffc741"/>
    </clipPath>
  </defs>
  <g id="Grupo_145698" data-name="Grupo 145698" transform="translate(-436.5 -3392.225)">
    <path id="Trazado_149984" data-name="Trazado 149984" d="M296.183,520.748c112.128,0,203.58-91.45,203.58-203.571S408.312,113.6,296.183,113.6,92.612,205.05,92.612,317.177s91.454,203.571,203.571,203.571" transform="translate(497.812 3278.622)" fill="#f2f2f2" fill-rule="evenodd"/>
    <path id="Trazado_149961" data-name="Trazado 149961" d="M380.382,214.56A122.019,122.019,0,1,1,258.366,92.541,122.015,122.015,0,0,1,380.382,214.56" transform="translate(533.986 3381.237)" fill="#fff"/>
    <g id="Grupo_144920" data-name="Grupo 144920" transform="translate(673.446 3477.176)">
      <g id="Grupo_144919" data-name="Grupo 144919" clip-path="url(#clip-path)">
        <rect id="Rectángulo_39096" data-name="Rectángulo 39096" width="339.024" height="338.987" transform="matrix(0.771, -0.637, 0.637, 0.771, -118.19, 97.777)" fill="url(#radial-gradient)"/>
      </g>
    </g>
    <path id="Trazado_149963" data-name="Trazado 149963" d="M359.031,132.485A122.032,122.032,0,0,1,148.95,254a122.253,122.253,0,0,0,12.144,16.257,122.035,122.035,0,0,0,197.937-137.77" transform="translate(543 3409.798)" fill="#e8eaec"/>
    <path id="Trazado_149964" data-name="Trazado 149964" d="M298.158,198.632l56.533-57.418v.009a84.778,84.778,0,1,1-1.914,112.652v.024Z" transform="translate(649.684 3396.481)" fill="#fed981"/>
    <path id="Trazado_149965" data-name="Trazado 149965" d="M330.564,189.267a63.945,63.945,0,1,0,63.944-63.946,63.944,63.944,0,0,0-63.944,63.946" transform="translate(672.854 3404.675)" fill="#fff"/>
    <g id="Grupo_144924" data-name="Grupo 144924" transform="translate(1003.418 3531.776)">
      <g id="Grupo_144923" data-name="Grupo 144923" clip-path="url(#clip-path-2)">
        <rect id="Rectángulo_39098" data-name="Rectángulo 39098" width="177.649" height="177.669" transform="translate(-61.939 74.869) rotate(-50.399)" fill="url(#radial-gradient-2)"/>
      </g>
    </g>
    <path id="Trazado_149967" data-name="Trazado 149967" d="M337.03,146.254a63.952,63.952,0,0,0,110.094,63.68A63.632,63.632,0,0,1,330.564,174.3a63.668,63.668,0,0,1,6.466-28.045" transform="translate(672.854 3419.643)" fill="#e8eaec"/>
    <path id="Trazado_149968" data-name="Trazado 149968" d="M275.067,227.371l80.5,3.531-.009.005a84.779,84.779,0,1,1-84.941,74.021l-.019.015Z" transform="translate(629.505 3477.642)" fill="#ff8578"/>
    <path id="Trazado_149969" data-name="Trazado 149969" d="M303.944,257.842a63.945,63.945,0,1,0,90.31,4.663,63.942,63.942,0,0,0-90.31-4.663" transform="translate(638.717 3487.66)" fill="#fff"/>
    <g id="Grupo_144928" data-name="Grupo 144928" transform="translate(921.538 3729.048)">
      <g id="Grupo_144927" data-name="Grupo 144927" clip-path="url(#clip-path-3)">
        <rect id="Rectángulo_39100" data-name="Rectángulo 39100" width="145.186" height="133.707" transform="matrix(0.999, -0.043, 0.043, 0.999, -12.642, 0.233)" fill="url(#radial-gradient-3)"/>
      </g>
    </g>
    <path id="Trazado_149971" data-name="Trazado 149971" d="M329.1,242.828a63.952,63.952,0,0,0,26.438,124.406A63.749,63.749,0,0,1,329.1,242.828" transform="translate(638.717 3488.692)" fill="#e8eaec"/>
    <path id="Trazado_149972" data-name="Trazado 149972" d="M243.473,253.71l-57.928,56.012h.01a84.776,84.776,0,1,0,112.664-.9h.024Z" transform="translate(549.205 3496.474)" fill="#43a99b"/>
    <path id="Trazado_149973" data-name="Trazado 149973" d="M233.607,286.109a63.945,63.945,0,1,1-64.52,63.362,63.943,63.943,0,0,1,64.52-63.362" transform="translate(557.396 3519.638)" fill="#fff"/>
    <g id="Grupo_144932" data-name="Grupo 144932" transform="translate(728.274 3805.743)">
      <g id="Grupo_144931" data-name="Grupo 144931" clip-path="url(#clip-path-4)">
        <rect id="Rectángulo_39102" data-name="Rectángulo 39102" width="178.071" height="178.026" transform="matrix(0.776, -0.63, 0.63, 0.776, -62.181, 50.251)" fill="url(#radial-gradient-4)"/>
      </g>
    </g>
    <path id="Trazado_149975" data-name="Trazado 149975" d="M190.321,292.321A63.952,63.952,0,0,1,253,402.987a63.749,63.749,0,0,0-62.683-110.666" transform="translate(572.58 3519.638)" fill="#e8eaec"/>
    <path id="Trazado_149976" data-name="Trazado 149976" d="M212.518,223.625l-80.5,3.529.007.007a84.779,84.779,0,1,0,84.939,74.021l.019.015Z" transform="translate(470.912 3474.963)" fill="#ff8578"/>
    <path id="Trazado_149977" data-name="Trazado 149977" d="M166.285,254.095a63.945,63.945,0,1,1-90.31,4.663,63.942,63.942,0,0,1,90.31-4.663" transform="translate(479.054 3484.98)" fill="#fff"/>
    <g id="Grupo_144936" data-name="Grupo 144936" transform="translate(540.987 3722.624)">
      <g id="Grupo_144935" data-name="Grupo 144935" clip-path="url(#clip-path-5)">
        <rect id="Rectángulo_39104" data-name="Rectángulo 39104" width="133.707" height="145.188" transform="translate(-12.64 127.626) rotate(-87.556)" fill="url(#radial-gradient-5)"/>
      </g>
    </g>
    <path id="Trazado_149979" data-name="Trazado 149979" d="M118.125,239.082A63.952,63.952,0,0,1,91.687,363.488a63.884,63.884,0,0,0,10.588.979,63.954,63.954,0,0,0,15.85-125.386" transform="translate(502.057 3486.015)" fill="#e8eaec"/>
    <path id="Trazado_149980" data-name="Trazado 149980" d="M203.658,198.632l-56.533-57.418v.009a84.778,84.778,0,1,0,1.914,112.652v.024Z" transform="translate(436.5 3396.481)" fill="#fed981"/>
    <path id="Trazado_149981" data-name="Trazado 149981" d="M139.664,189.267a63.945,63.945,0,1,1-63.944-63.946,63.944,63.944,0,0,1,63.944,63.946" transform="translate(444.919 3404.675)" fill="#fff"/>
    <g id="Grupo_144940" data-name="Grupo 144940" transform="translate(458.325 3531.776)">
      <g id="Grupo_144939" data-name="Grupo 144939" clip-path="url(#clip-path-6)">
        <rect id="Rectángulo_39106" data-name="Rectángulo 39106" width="177.67" height="177.651" transform="matrix(0.771, -0.637, 0.637, 0.771, -61.939, 51.242)" fill="url(#radial-gradient-6)"/>
      </g>
    </g>
    <g id="Grupo_144944" data-name="Grupo 144944" transform="translate(-6 -269.358)">
      <path id="Trazado_151858" data-name="Trazado 151858" d="M38.653,19V6.2H42.59a5.98,5.98,0,0,1,3.019.76,5.3,5.3,0,0,1,2.079,2.162,6.669,6.669,0,0,1,.747,3.186V12.9a6.688,6.688,0,0,1-.734,3.173,5.256,5.256,0,0,1-2.07,2.153A6.025,6.025,0,0,1,42.617,19ZM41.29,8.339v8.543h1.274a2.863,2.863,0,0,0,2.364-1.011,4.567,4.567,0,0,0,.835-2.892V12.3a4.64,4.64,0,0,0-.809-2.958A2.854,2.854,0,0,0,42.59,8.339Zm8.5,5.818a5.64,5.64,0,0,1,.545-2.522A3.989,3.989,0,0,1,51.9,9.921a4.577,4.577,0,0,1,2.377-.606,4.33,4.33,0,0,1,3.142,1.178,4.727,4.727,0,0,1,1.358,3.2l.018.65a4.97,4.97,0,0,1-1.222,3.511,4.735,4.735,0,0,1-6.561,0,5.058,5.058,0,0,1-1.226-3.586Zm2.54.18a3.555,3.555,0,0,0,.51,2.073,1.831,1.831,0,0,0,2.9.009,3.89,3.89,0,0,0,.519-2.267,3.519,3.519,0,0,0-.519-2.06,1.686,1.686,0,0,0-1.459-.731,1.658,1.658,0,0,0-1.441.726A3.955,3.955,0,0,0,52.329,14.338Zm11.988,2.79a1.666,1.666,0,0,0,1.143-.387,1.355,1.355,0,0,0,.457-1.028H68.3a3.258,3.258,0,0,1-.527,1.771,3.48,3.48,0,0,1-1.419,1.248,4.442,4.442,0,0,1-1.991.444,4.129,4.129,0,0,1-3.217-1.3A5.13,5.13,0,0,1,59.966,14.3v-.167a5.071,5.071,0,0,1,1.169-3.507,4.08,4.08,0,0,1,3.208-1.31A4,4,0,0,1,67.2,10.33a3.594,3.594,0,0,1,1.094,2.7H65.917a1.745,1.745,0,0,0-.457-1.206,1.7,1.7,0,0,0-2.5.183,3.749,3.749,0,0,0-.453,2.1v.264a3.8,3.8,0,0,0,.448,2.113A1.549,1.549,0,0,0,64.317,17.128Zm11.127.905a3.185,3.185,0,0,1-2.6,1.143,3,3,0,0,1-2.333-.879,3.752,3.752,0,0,1-.822-2.575V9.49h2.54v6.151q0,1.487,1.354,1.487a1.834,1.834,0,0,0,1.775-.9V9.49H77.9V19H75.514ZM82.2,9.49l.079,1.063a3.342,3.342,0,0,1,2.733-1.239,2.536,2.536,0,0,1,2.522,1.45,3.265,3.265,0,0,1,2.856-1.45,2.836,2.836,0,0,1,2.3.9,4.141,4.141,0,0,1,.756,2.711V19H90.9V12.936a1.811,1.811,0,0,0-.316-1.182,1.4,1.4,0,0,0-1.116-.374,1.585,1.585,0,0,0-1.582,1.09L87.9,19h-2.54V12.944a1.789,1.789,0,0,0-.325-1.2,1.416,1.416,0,0,0-1.107-.369,1.646,1.646,0,0,0-1.564.9V19h-2.54V9.49Zm17.578,9.686a4.668,4.668,0,0,1-3.406-1.283,4.561,4.561,0,0,1-1.314-3.419v-.246a5.745,5.745,0,0,1,.554-2.562,4.064,4.064,0,0,1,1.569-1.74A4.4,4.4,0,0,1,99.5,9.314a3.947,3.947,0,0,1,3.072,1.23,5,5,0,0,1,1.121,3.489v1.037H97.636a2.36,2.36,0,0,0,.743,1.494,2.245,2.245,0,0,0,1.569.563,2.742,2.742,0,0,0,2.294-1.063l1.248,1.4a3.813,3.813,0,0,1-1.547,1.261A5.075,5.075,0,0,1,99.781,19.176Zm-.29-7.813a1.587,1.587,0,0,0-1.226.512,2.651,2.651,0,0,0-.6,1.466H101.2v-.2a1.891,1.891,0,0,0-.457-1.311A1.638,1.638,0,0,0,99.491,11.362Zm7.98-1.872.079,1.1a3.32,3.32,0,0,1,2.733-1.274,2.759,2.759,0,0,1,2.25.888,4.142,4.142,0,0,1,.756,2.654V19h-2.54V12.918a1.648,1.648,0,0,0-.352-1.173,1.574,1.574,0,0,0-1.169-.365,1.747,1.747,0,0,0-1.608.914V19h-2.54V9.49Zm10.784-2.338V9.49h1.626v1.863h-1.626V16.1a1.133,1.133,0,0,0,.2.756,1.015,1.015,0,0,0,.773.229,4.051,4.051,0,0,0,.747-.062v1.925a5.229,5.229,0,0,1-1.538.229,2.425,2.425,0,0,1-2.725-2.7V11.354h-1.389V9.49h1.389V7.152Zm2.382,7a5.64,5.64,0,0,1,.545-2.522,3.989,3.989,0,0,1,1.569-1.714,4.577,4.577,0,0,1,2.377-.606,4.33,4.33,0,0,1,3.142,1.178,4.727,4.727,0,0,1,1.358,3.2l.018.65a4.97,4.97,0,0,1-1.222,3.511,4.735,4.735,0,0,1-6.561,0,5.058,5.058,0,0,1-1.226-3.586Zm2.54.18a3.555,3.555,0,0,0,.51,2.073,1.831,1.831,0,0,0,2.9.009,3.89,3.89,0,0,0,.519-2.267,3.519,3.519,0,0,0-.519-2.06,1.686,1.686,0,0,0-1.459-.731,1.658,1.658,0,0,0-1.441.726A3.955,3.955,0,0,0,123.177,14.338Zm13.184,2.035a.818.818,0,0,0-.461-.734,5.241,5.241,0,0,0-1.481-.479q-3.393-.712-3.393-2.883a2.613,2.613,0,0,1,1.05-2.114,4.237,4.237,0,0,1,2.747-.848,4.56,4.56,0,0,1,2.9.853,2.687,2.687,0,0,1,1.085,2.215h-2.54a1.229,1.229,0,0,0-.352-.9,1.488,1.488,0,0,0-1.1-.356,1.52,1.52,0,0,0-.993.29.916.916,0,0,0-.352.738.783.783,0,0,0,.4.681,4.114,4.114,0,0,0,1.349.448,11.019,11.019,0,0,1,1.6.426,2.628,2.628,0,0,1,2.013,2.558,2.481,2.481,0,0,1-1.116,2.1,4.815,4.815,0,0,1-2.883.8,5.029,5.029,0,0,1-2.123-.426,3.561,3.561,0,0,1-1.455-1.169,2.716,2.716,0,0,1-.527-1.6h2.408a1.326,1.326,0,0,0,.5,1.037,1.987,1.987,0,0,0,1.248.36,1.839,1.839,0,0,0,1.1-.277A.861.861,0,0,0,136.361,16.372ZM56.666,40.363H52.043L51.164,43h-2.8l4.764-12.8h2.443L60.357,43h-2.8Zm-3.911-2.136h3.2l-1.608-4.79Zm17.191.105a5.7,5.7,0,0,1-1,3.52,3.2,3.2,0,0,1-2.694,1.323,2.963,2.963,0,0,1-2.329-1v4.482h-2.54V33.49h2.355l.088.932a2.985,2.985,0,0,1,2.408-1.107,3.22,3.22,0,0,1,2.733,1.3,5.858,5.858,0,0,1,.976,3.586Zm-2.54-.185a3.743,3.743,0,0,0-.47-2.048,1.532,1.532,0,0,0-1.367-.721,1.663,1.663,0,0,0-1.644.914v3.894a1.692,1.692,0,0,0,1.661.94Q67.406,41.128,67.406,38.148ZM74.2,43H71.651V29.5H74.2Zm4.772,0H76.424V33.49h2.549Zm-2.7-11.971a1.251,1.251,0,0,1,.382-.94,1.648,1.648,0,0,1,2.079,0,1.342,1.342,0,0,1,0,1.89,1.629,1.629,0,0,1-2.065,0A1.247,1.247,0,0,1,76.274,31.029Zm8.745,10.1a1.666,1.666,0,0,0,1.143-.387,1.355,1.355,0,0,0,.457-1.028H89a3.258,3.258,0,0,1-.527,1.771,3.48,3.48,0,0,1-1.419,1.248,4.442,4.442,0,0,1-1.991.444,4.129,4.129,0,0,1-3.217-1.3A5.13,5.13,0,0,1,80.669,38.3v-.167a5.071,5.071,0,0,1,1.169-3.507,4.08,4.08,0,0,1,3.208-1.31,4,4,0,0,1,2.861,1.015A3.594,3.594,0,0,1,89,37.032H86.619a1.745,1.745,0,0,0-.457-1.206,1.7,1.7,0,0,0-2.5.183,3.749,3.749,0,0,0-.453,2.1v.264a3.8,3.8,0,0,0,.448,2.113A1.549,1.549,0,0,0,85.02,41.128ZM95.962,43a2.821,2.821,0,0,1-.255-.853,3.073,3.073,0,0,1-2.4,1.028,3.376,3.376,0,0,1-2.316-.809,2.6,2.6,0,0,1-.918-2.039,2.687,2.687,0,0,1,1.121-2.32,5.529,5.529,0,0,1,3.239-.817H95.6v-.545a1.567,1.567,0,0,0-.338-1.055,1.331,1.331,0,0,0-1.068-.4,1.513,1.513,0,0,0-1.006.308,1.045,1.045,0,0,0-.365.844h-2.54a2.551,2.551,0,0,1,.51-1.529,3.37,3.37,0,0,1,1.441-1.1,5.253,5.253,0,0,1,2.092-.4,4.15,4.15,0,0,1,2.791.883,3.09,3.09,0,0,1,1.033,2.483V40.8a4.546,4.546,0,0,0,.378,2.048V43Zm-2.1-1.767a2.188,2.188,0,0,0,1.037-.25,1.645,1.645,0,0,0,.7-.672V38.676h-.949q-1.907,0-2.03,1.318l-.009.149a1.017,1.017,0,0,0,.334.782A1.3,1.3,0,0,0,93.861,41.233Zm5.845-3.059a5.731,5.731,0,0,1,1-3.542,3.237,3.237,0,0,1,2.729-1.318,2.913,2.913,0,0,1,2.294,1.037V29.5h2.549V43h-2.294l-.123-1.011a2.989,2.989,0,0,1-2.443,1.187,3.228,3.228,0,0,1-2.694-1.323A5.916,5.916,0,0,1,99.706,38.175Zm2.54.189a3.754,3.754,0,0,0,.466,2.051,1.517,1.517,0,0,0,1.354.713,1.7,1.7,0,0,0,1.661-.995V36.375a1.675,1.675,0,0,0-1.644-.995Q102.246,35.38,102.246,38.364Zm7.6-.207a5.64,5.64,0,0,1,.545-2.522,3.989,3.989,0,0,1,1.569-1.714,4.577,4.577,0,0,1,2.377-.606,4.33,4.33,0,0,1,3.142,1.178,4.727,4.727,0,0,1,1.358,3.2l.018.65a4.97,4.97,0,0,1-1.222,3.511,4.735,4.735,0,0,1-6.561,0,5.058,5.058,0,0,1-1.226-3.586Zm2.54.18a3.555,3.555,0,0,0,.51,2.073,1.831,1.831,0,0,0,2.9.009,3.89,3.89,0,0,0,.519-2.267,3.519,3.519,0,0,0-.519-2.06,1.686,1.686,0,0,0-1.459-.731,1.658,1.658,0,0,0-1.441.726A3.955,3.955,0,0,0,112.389,38.338Zm13.184,2.035a.818.818,0,0,0-.461-.734,5.241,5.241,0,0,0-1.481-.479q-3.393-.712-3.393-2.883a2.613,2.613,0,0,1,1.05-2.114,4.237,4.237,0,0,1,2.747-.848,4.56,4.56,0,0,1,2.9.853,2.687,2.687,0,0,1,1.085,2.215h-2.54a1.229,1.229,0,0,0-.352-.9,1.488,1.488,0,0,0-1.1-.356,1.52,1.52,0,0,0-.993.29.916.916,0,0,0-.352.738.783.783,0,0,0,.4.681,4.114,4.114,0,0,0,1.349.448,11.019,11.019,0,0,1,1.6.426,2.628,2.628,0,0,1,2.013,2.558,2.481,2.481,0,0,1-1.116,2.1,4.815,4.815,0,0,1-2.883.8,5.029,5.029,0,0,1-2.123-.426,3.561,3.561,0,0,1-1.455-1.169,2.716,2.716,0,0,1-.527-1.6h2.408a1.326,1.326,0,0,0,.5,1.037,1.987,1.987,0,0,0,1.248.36,1.839,1.839,0,0,0,1.1-.277A.861.861,0,0,0,125.572,40.372Z" transform="translate(712 3836)" fill="#12263f"/>
      <g id="Grupo_144943" data-name="Grupo 144943" transform="translate(158 2681)">
        <circle id="Elipse_4886" data-name="Elipse 4886" cx="2.5" cy="2.5" r="2.5" transform="translate(615 1213)" fill="#12263f"/>
        <circle id="Elipse_4891" data-name="Elipse 4891" cx="2.5" cy="2.5" r="2.5" transform="translate(645 1213)" fill="#12263f"/>
        <circle id="Elipse_4887" data-name="Elipse 4887" cx="2.5" cy="2.5" r="2.5" transform="translate(625 1213)" fill="#12263f"/>
        <circle id="Elipse_4890" data-name="Elipse 4890" cx="2.5" cy="2.5" r="2.5" transform="translate(655 1213)" fill="#12263f"/>
        <circle id="Elipse_4888" data-name="Elipse 4888" cx="2.5" cy="2.5" r="2.5" transform="translate(635 1213)" fill="#12263f"/>
        <circle id="Elipse_4889" data-name="Elipse 4889" cx="2.5" cy="2.5" r="2.5" transform="translate(665 1213)" fill="#12263f"/>
      </g>
    </g>
    <g id="Grupo_145587" data-name="Grupo 145587" transform="translate(612 358)">
      <g id="Grupo_145586" data-name="Grupo 145586" transform="translate(345.832 3399.142)">
        <g id="Grupo_145585" data-name="Grupo 145585" transform="translate(0.168 -0.142)" clip-path="url(#clip-path-7)">
          <path id="Trazado_151450" data-name="Trazado 151450" d="M36.254,22.826H17.413a1.413,1.413,0,1,1,0-2.826H36.254a1.413,1.413,0,0,1,0,2.826" transform="translate(-0.937 -0.617)" fill="#e55e4f"/>
          <path id="Trazado_151451" data-name="Trazado 151451" d="M36.254,30.826H17.413a1.413,1.413,0,1,1,0-2.826H36.254a1.413,1.413,0,0,1,0,2.826" transform="translate(-0.937 -1.081)" fill="#e55e4f"/>
          <path id="Trazado_151452" data-name="Trazado 151452" d="M30.6,38.826H17.413a1.413,1.413,0,1,1,0-2.826H30.6a1.413,1.413,0,0,1,0,2.826" transform="translate(-0.937 -1.544)" fill="#e55e4f"/>
          <path id="Trazado_151453" data-name="Trazado 151453" d="M25.892,46.826H17.413a1.413,1.413,0,0,1,0-2.826h8.479a1.413,1.413,0,0,1,0,2.826" transform="translate(-0.937 -2.008)" fill="#e55e4f"/>
          <path id="Trazado_151454" data-name="Trazado 151454" d="M12.268,21.384A1.884,1.884,0,1,1,10.384,19.5a1.884,1.884,0,0,1,1.884,1.884" transform="translate(-0.503 -0.588)" fill="#e55e4f"/>
          <path id="Trazado_151455" data-name="Trazado 151455" d="M12.268,29.384A1.884,1.884,0,1,1,10.384,27.5a1.884,1.884,0,0,1,1.884,1.884" transform="translate(-0.503 -1.052)" fill="#e55e4f"/>
          <path id="Trazado_151456" data-name="Trazado 151456" d="M12.268,37.384A1.884,1.884,0,1,1,10.384,35.5a1.884,1.884,0,0,1,1.884,1.884" transform="translate(-0.503 -1.515)" fill="#e55e4f"/>
          <path id="Trazado_151457" data-name="Trazado 151457" d="M12.268,45.384A1.884,1.884,0,1,1,10.384,43.5a1.884,1.884,0,0,1,1.884,1.884" transform="translate(-0.503 -1.979)" fill="#e55e4f"/>
          <path id="Trazado_151458" data-name="Trazado 151458" d="M32.03,61.234H3.3a3.3,3.3,0,0,1-3.3-3.3V3.3A3.3,3.3,0,0,1,3.3,0h27.32a1.413,1.413,0,0,1,1,.414L43.862,12.66a1.418,1.418,0,0,1,.415,1V29.2H41.451V14.245L30.031,2.826H3.3a.472.472,0,0,0-.471.471V57.937a.472.472,0,0,0,.471.471H32.03Z" transform="translate(-0.01 0.541)" fill="#e55e4f"/>
          <path id="Trazado_151459" data-name="Trazado 151459" d="M43.718,15.536H33.355A2.358,2.358,0,0,1,31,13.181V9.413a1.413,1.413,0,1,1,2.826,0v3.3h9.892a1.413,1.413,0,0,1,0,2.826" transform="translate(-1.806 0.078)" fill="#e55e4f"/>
          <path id="Trazado_151460" data-name="Trazado 151460" d="M44.6,63.2A14.6,14.6,0,1,1,59.2,48.6,14.618,14.618,0,0,1,44.6,63.2m0-26.378A11.776,11.776,0,1,0,56.378,48.6,11.789,11.789,0,0,0,44.6,36.826" transform="translate(-1.748 -1.429)" fill="#e55e4f"/>
          <path id="Trazado_151461" data-name="Trazado 151461" d="M44.123,55.247a1.417,1.417,0,0,1-1-.414l-4.71-4.71a1.414,1.414,0,0,1,2-2l3.519,3.52L49.56,43.6a1.413,1.413,0,0,1,2.316,1.62l-6.594,9.421a1.408,1.408,0,0,1-1.034.6c-.041,0-.083.006-.123.006" transform="translate(-2.212 -1.95)" fill="#e55e4f"/>
        </g>
      </g>
      <rect id="Rectángulo_39166" data-name="Rectángulo 39166" width="76" height="76" transform="translate(336 3392)" fill="none"/>
    </g>
    <g id="Grupo_145588" data-name="Grupo 145588" transform="translate(229 358)">
      <rect id="Rectángulo_39166-2" data-name="Rectángulo 39166" width="76" height="76" transform="translate(336 3392)" fill="none"/>
      <g id="Grupo_145592" data-name="Grupo 145592" transform="translate(344 3400)">
        <g id="Grupo_145592-2" data-name="Grupo 145592" clip-path="url(#clip-path-8)">
          <path id="Trazado_151462" data-name="Trazado 151462" d="M36.774,14.058H12.406A1.406,1.406,0,0,1,11,12.653V8.9a4.223,4.223,0,0,1,4.218-4.218h.469V1.406A1.406,1.406,0,0,1,17.092,0h15a1.406,1.406,0,0,1,1.406,1.406v3.28h.469A4.223,4.223,0,0,1,38.18,8.9v3.749a1.406,1.406,0,0,1-1.406,1.406M13.812,11.247H35.368V8.9A1.408,1.408,0,0,0,33.962,7.5H32.088a1.406,1.406,0,0,1-1.406-1.406V2.812H18.5v3.28A1.406,1.406,0,0,1,17.092,7.5H15.218A1.408,1.408,0,0,0,13.812,8.9Z" transform="translate(-0.69)" fill="#e55e4f"/>
          <path id="Trazado_151463" data-name="Trazado 151463" d="M28.029,9.686H22.406A1.406,1.406,0,0,1,21,8.28V5h2.812V6.874h2.812V5h2.812V8.28a1.406,1.406,0,0,1-1.406,1.406" transform="translate(-1.318 -0.314)" fill="#e55e4f"/>
          <path id="Trazado_151464" data-name="Trazado 151464" d="M35.615,61.422H3.28A3.284,3.284,0,0,1,0,58.142V11.28A3.284,3.284,0,0,1,3.28,8H9.372v2.812H3.28a.469.469,0,0,0-.469.469V58.142a.469.469,0,0,0,.469.469H35.615Z" transform="translate(0 -0.502)" fill="#e55e4f"/>
          <path id="Trazado_151465" data-name="Trazado 151465" d="M50.184,29.556H47.372V11.28a.469.469,0,0,0-.469-.469H38V8h8.9a3.284,3.284,0,0,1,3.28,3.28Z" transform="translate(-2.385 -0.502)" fill="#e55e4f"/>
          <path id="Trazado_151466" data-name="Trazado 151466" d="M39.025,26.812H18.406a1.406,1.406,0,0,1,0-2.812H39.025a1.406,1.406,0,1,1,0,2.812" transform="translate(-1.067 -1.506)" fill="#e55e4f"/>
          <path id="Trazado_151467" data-name="Trazado 151467" d="M35.276,34.812H18.406a1.406,1.406,0,0,1,0-2.812h16.87a1.406,1.406,0,0,1,0,2.812" transform="translate(-1.067 -2.009)" fill="#e55e4f"/>
          <path id="Trazado_151468" data-name="Trazado 151468" d="M31.527,42.812H18.406a1.406,1.406,0,0,1,0-2.812H31.527a1.406,1.406,0,1,1,0,2.812" transform="translate(-1.067 -2.511)" fill="#e55e4f"/>
          <path id="Trazado_151469" data-name="Trazado 151469" d="M28.715,50.812H18.406a1.406,1.406,0,0,1,0-2.812h10.31a1.406,1.406,0,0,1,0,2.812" transform="translate(-1.067 -3.013)" fill="#e55e4f"/>
          <path id="Trazado_151470" data-name="Trazado 151470" d="M13.249,25.374A1.874,1.874,0,1,1,11.374,23.5a1.874,1.874,0,0,1,1.874,1.874" transform="translate(-0.596 -1.475)" fill="#e55e4f"/>
          <path id="Trazado_151471" data-name="Trazado 151471" d="M13.249,33.374A1.874,1.874,0,1,1,11.374,31.5a1.874,1.874,0,0,1,1.874,1.874" transform="translate(-0.596 -1.977)" fill="#e55e4f"/>
          <path id="Trazado_151472" data-name="Trazado 151472" d="M13.249,41.374A1.874,1.874,0,1,1,11.374,39.5a1.874,1.874,0,0,1,1.874,1.874" transform="translate(-0.596 -2.479)" fill="#e55e4f"/>
          <path id="Trazado_151473" data-name="Trazado 151473" d="M13.249,49.374A1.874,1.874,0,1,1,11.374,47.5a1.874,1.874,0,0,1,1.874,1.874" transform="translate(-0.596 -2.982)" fill="#e55e4f"/>
          <path id="Trazado_151474" data-name="Trazado 151474" d="M48.527,63.054A14.527,14.527,0,1,1,63.054,48.527,14.543,14.543,0,0,1,48.527,63.054m0-26.242A11.715,11.715,0,1,0,60.242,48.527,11.728,11.728,0,0,0,48.527,36.812" transform="translate(-2.134 -2.134)" fill="#e55e4f"/>
          <path id="Trazado_151475" data-name="Trazado 151475" d="M48.092,55.184a1.409,1.409,0,0,1-.994-.411l-4.686-4.686A1.406,1.406,0,1,1,44.4,48.1l3.5,3.5,5.6-8a1.406,1.406,0,1,1,2.3,1.612l-6.561,9.372a1.4,1.4,0,0,1-1.029.594c-.041,0-.082.006-.123.006" transform="translate(-2.636 -2.699)" fill="#e55e4f"/>
        </g>
      </g>
    </g>
    <g id="Grupo_145589" data-name="Grupo 145589" transform="translate(418 440)">
      <rect id="Rectángulo_39166-3" data-name="Rectángulo 39166" width="76" height="76" transform="translate(336 3392)" fill="none"/>
      <g id="Grupo_145593" data-name="Grupo 145593" transform="translate(349 3398)">
        <g id="Grupo_145593-2" data-name="Grupo 145593" clip-path="url(#clip-path-9)">
          <path id="Trazado_151476" data-name="Trazado 151476" d="M38.5,15h-26A1.5,1.5,0,0,1,11,13.5v-4A4.505,4.505,0,0,1,15.5,5H16V1.5A1.5,1.5,0,0,1,17.5,0h16A1.5,1.5,0,0,1,35,1.5V5h.5A4.505,4.505,0,0,1,40,9.5v4A1.5,1.5,0,0,1,38.5,15M14,12H37V9.5A1.5,1.5,0,0,0,35.5,8h-2A1.5,1.5,0,0,1,32,6.5V3H19V6.5A1.5,1.5,0,0,1,17.5,8h-2A1.5,1.5,0,0,0,14,9.5Z" fill="#319688"/>
          <path id="Trazado_151477" data-name="Trazado 151477" d="M28.5,10h-6A1.5,1.5,0,0,1,21,8.5V5h3V7h3V5h3V8.5A1.5,1.5,0,0,1,28.5,10" fill="#319688"/>
          <path id="Trazado_151478" data-name="Trazado 151478" d="M47.5,65H3.5A3.5,3.5,0,0,1,0,61.5v-50A3.5,3.5,0,0,1,3.5,8H10v3H3.5a.5.5,0,0,0-.5.5v50a.5.5,0,0,0,.5.5h44a.5.5,0,0,0,.5-.5v-50a.5.5,0,0,0-.5-.5H38V8h9.5A3.5,3.5,0,0,1,51,11.5v50A3.5,3.5,0,0,1,47.5,65" fill="#319688"/>
          <path id="Trazado_151479" data-name="Trazado 151479" d="M21.5,36h-11A1.5,1.5,0,0,1,9,34.5v-11A1.5,1.5,0,0,1,10.5,22h5a1.5,1.5,0,0,1,0,3H12v8h8V31.5a1.5,1.5,0,0,1,3,0v3A1.5,1.5,0,0,1,21.5,36" fill="#319688"/>
          <path id="Trazado_151480" data-name="Trazado 151480" d="M21.5,55h-11A1.5,1.5,0,0,1,9,53.5v-11A1.5,1.5,0,0,1,10.5,41h11A1.5,1.5,0,0,1,23,42.5v11A1.5,1.5,0,0,1,21.5,55M12,52h8V44H12Z" fill="#319688"/>
          <path id="Trazado_151481" data-name="Trazado 151481" d="M16.5,32a1.5,1.5,0,0,1-1.061-.439l-2-2a1.5,1.5,0,0,1,2.122-2.122l.838.839,3.949-4.738a1.5,1.5,0,1,1,2.3,1.92l-5,6A1.5,1.5,0,0,1,16.568,32H16.5" fill="#319688"/>
          <path id="Trazado_151482" data-name="Trazado 151482" d="M35.5,30h-8a1.5,1.5,0,0,1,0-3h8a1.5,1.5,0,0,1,0,3" fill="#319688"/>
          <path id="Trazado_151483" data-name="Trazado 151483" d="M41.5,36h-14a1.5,1.5,0,0,1,0-3h14a1.5,1.5,0,0,1,0,3" fill="#319688"/>
          <path id="Trazado_151484" data-name="Trazado 151484" d="M35.5,48h-8a1.5,1.5,0,0,1,0-3h8a1.5,1.5,0,0,1,0,3" fill="#319688"/>
          <path id="Trazado_151485" data-name="Trazado 151485" d="M41.5,54h-14a1.5,1.5,0,0,1,0-3h14a1.5,1.5,0,0,1,0,3" fill="#319688"/>
        </g>
      </g>
    </g>
    <g id="Grupo_145590" data-name="Grupo 145590" transform="translate(147 164)">
      <rect id="Rectángulo_39166-4" data-name="Rectángulo 39166" width="76" height="76" transform="translate(336 3392)" fill="none"/>
      <g id="Grupo_145595" data-name="Grupo 145595" transform="translate(343 3399)">
        <g id="Grupo_145594" data-name="Grupo 145594" transform="translate(0 0)" clip-path="url(#clip-path-10)">
          <path id="Trazado_151486" data-name="Trazado 151486" d="M60.078,60.353a1.439,1.439,0,0,1-1.44-1.44V56.034a1.465,1.465,0,0,1,.028-.282l1.892-9.458V39.586a4.3,4.3,0,0,0-.76-2.448L50.253,23.256a1.44,1.44,0,0,1,2.373-1.632l9.545,13.884a7.169,7.169,0,0,1,1.267,4.078v6.849a1.465,1.465,0,0,1-.028.282l-1.892,9.458v2.737a1.439,1.439,0,0,1-1.44,1.44" transform="translate(-2.009 -0.844)" fill="#ffc741"/>
          <path id="Trazado_151487" data-name="Trazado 151487" d="M48.264,60.634a1.439,1.439,0,0,1-1.44-1.44v-2.18a11.988,11.988,0,0,1-3.8-6.109,14.4,14.4,0,0,1,.917-9.327V32.319a4.319,4.319,0,0,1,8.613-.475l3.623,5.435a1.441,1.441,0,0,1,.242.8v2.879a3.359,3.359,0,1,1-6.719,0V32.3a1.44,1.44,0,0,0-2.879.014v9.6a1.437,1.437,0,0,1-.179.7,11.571,11.571,0,0,0-.824,7.593,9.053,9.053,0,0,0,3.248,4.914,1.456,1.456,0,0,1,.634,1.194v2.879a1.439,1.439,0,0,1-1.44,1.44m4.319-23.56v3.883a.48.48,0,0,0,.96,0V38.514Z" transform="translate(-1.712 -1.125)" fill="#ffc741"/>
          <path id="Trazado_151488" data-name="Trazado 151488" d="M64.156,64.759H61.277V61.879h-14.4v2.879H44V60.44A1.439,1.439,0,0,1,45.44,59H62.717a1.439,1.439,0,0,1,1.44,1.44Z" transform="translate(-1.768 -2.37)" fill="#ffc741"/>
          <rect id="Rectángulo_39169" data-name="Rectángulo 39169" width="14" height="3" transform="translate(32 53)" fill="#ffc741"/>
          <path id="Trazado_151489" data-name="Trazado 151489" d="M51.112,32.634H48.232V7.2a4.324,4.324,0,0,0-4.319-4.319H6V0H43.913a7.206,7.206,0,0,1,7.2,7.2Z" transform="translate(-0.241 0)" fill="#ffc741"/>
          <path id="Trazado_151490" data-name="Trazado 151490" d="M17.277,55.67H11.038A1.439,1.439,0,0,1,9.6,54.23V6.239a3.359,3.359,0,0,0-6.719,0v1.44H6.719v2.879H1.44A1.439,1.439,0,0,1,0,9.118V6.239a6.239,6.239,0,0,1,12.478,0V52.79h4.8Z" transform="translate(0 0)" fill="#ffc741"/>
          <path id="Trazado_151491" data-name="Trazado 151491" d="M36.958,14.879H25.44a1.44,1.44,0,1,1,0-2.879H36.958a1.44,1.44,0,0,1,0,2.879" transform="translate(-0.964 -0.482)" fill="#ffc741"/>
          <path id="Trazado_151492" data-name="Trazado 151492" d="M42.476,23.879H19.44a1.44,1.44,0,0,1,0-2.879H42.476a1.44,1.44,0,1,1,0,2.879" transform="translate(-0.723 -0.844)" fill="#ffc741"/>
          <path id="Trazado_151493" data-name="Trazado 151493" d="M39.6,29.879H19.44a1.44,1.44,0,0,1,0-2.879H39.6a1.44,1.44,0,1,1,0,2.879" transform="translate(-0.723 -1.085)" fill="#ffc741"/>
          <path id="Trazado_151494" data-name="Trazado 151494" d="M30,35.879H19.44a1.44,1.44,0,0,1,0-2.879H30a1.44,1.44,0,0,1,0,2.879" transform="translate(-0.723 -1.326)" fill="#ffc741"/>
          <path id="Trazado_151495" data-name="Trazado 151495" d="M30.118,64.472a1.439,1.439,0,0,1-.644-.152l-3.2-1.6-3.2,1.6a1.441,1.441,0,0,1-2.077-1.431l1.1-11.031,2.865.287-.844,8.431,1.5-.752a1.441,1.441,0,0,1,1.288,0l1.5.752-.844-8.431,2.865-.287,1.1,11.031a1.441,1.441,0,0,1-1.433,1.583" transform="translate(-0.844 -2.084)" fill="#ffc741"/>
          <path id="Trazado_151496" data-name="Trazado 151496" d="M26.172,55a2.4,2.4,0,0,1-1.7-.7,3.011,3.011,0,0,0-2.142-.888,2.4,2.4,0,0,1-2.4-2.4,3.013,3.013,0,0,0-.888-2.142,2.4,2.4,0,0,1,0-3.392,3.015,3.015,0,0,0,.888-2.144,2.4,2.4,0,0,1,2.4-2.4,3.01,3.01,0,0,0,2.142-.887,2.4,2.4,0,0,1,3.393,0,3.014,3.014,0,0,0,2.143.887,2.4,2.4,0,0,1,2.4,2.4,3.011,3.011,0,0,0,.888,2.144,2.4,2.4,0,0,1,0,3.392,3.012,3.012,0,0,0-.887,2.142,2.4,2.4,0,0,1-2.4,2.4,3.015,3.015,0,0,0-2.143.888,2.388,2.388,0,0,1-1.7.7m-3.378-4.451a5.856,5.856,0,0,1,3.378,1.4,5.856,5.856,0,0,1,3.377-1.4,5.86,5.86,0,0,1,1.4-3.377,5.856,5.856,0,0,1-1.4-3.378,5.853,5.853,0,0,1-3.377-1.4,5.85,5.85,0,0,1-3.378,1.4,5.856,5.856,0,0,1-1.4,3.378,5.853,5.853,0,0,1,1.4,3.377m8.468-3.038h0Z" transform="translate(-0.737 -1.581)" fill="#ffc741"/>
        </g>
      </g>
    </g>
    <g id="Grupo_145591" data-name="Grupo 145591" transform="translate(695 164)">
      <rect id="Rectángulo_39166-5" data-name="Rectángulo 39166" width="76" height="76" transform="translate(336 3392)" fill="none"/>
      <g id="Grupo_145597" data-name="Grupo 145597" transform="translate(344.147 3400.151)">
        <g id="Grupo_145596" data-name="Grupo 145596" transform="translate(0 0)" clip-path="url(#clip-path-11)">
          <path id="Trazado_151497" data-name="Trazado 151497" d="M54.653,61.369H5.052A5.058,5.058,0,0,1,0,56.317V20.494H2.756V56.317a2.3,2.3,0,0,0,2.3,2.3h49.6a2.3,2.3,0,0,0,2.3-2.3V20.494h2.756V56.317a5.058,5.058,0,0,1-5.052,5.052" transform="translate(0 -1.669)" fill="#ffc741"/>
          <path id="Trazado_151498" data-name="Trazado 151498" d="M1.421,21.384a1.377,1.377,0,0,1-.741-2.54l5.473-3.486a1.378,1.378,0,1,1,1.481,2.325L2.158,21.169a1.37,1.37,0,0,1-.738.216" transform="translate(-0.003 -1.233)" fill="#ffc741"/>
          <path id="Trazado_151499" data-name="Trazado 151499" d="M41.172,8.263a1.376,1.376,0,0,1-.736-.213L32.645,3.117a2.17,2.17,0,0,0-2.423,0L22.487,8.045a1.378,1.378,0,0,1-1.48-2.325L28.751.79A4.959,4.959,0,0,1,34.11.783l7.8,4.938a1.378,1.378,0,0,1-.739,2.543" transform="translate(-1.659 0)" fill="#ffc741"/>
          <path id="Trazado_151500" data-name="Trazado 151500" d="M62.851,21.386a1.37,1.37,0,0,1-.737-.214l-5.473-3.465a1.378,1.378,0,0,1,1.474-2.328l5.473,3.466a1.378,1.378,0,0,1-.738,2.542" transform="translate(-4.562 -1.235)" fill="#ffc741"/>
          <path id="Trazado_151501" data-name="Trazado 151501" d="M29.774,52.184A5.006,5.006,0,0,1,27.1,51.4L.678,34.573a1.378,1.378,0,0,1,1.481-2.324l26.415,16.82A2.172,2.172,0,0,0,31,49.062L57.556,32.246a1.378,1.378,0,0,1,1.473,2.329L32.463,51.4a5.077,5.077,0,0,1-2.689.788" transform="translate(-0.003 -2.609)" fill="#ffc741"/>
          <path id="Trazado_151502" data-name="Trazado 151502" d="M53.3,30.795a1.377,1.377,0,0,1-1.378-1.378V11.046a2.3,2.3,0,0,0-2.3-2.3H11.052a2.3,2.3,0,0,0-2.3,2.3V29.417a1.378,1.378,0,1,1-2.756,0V11.046a5.057,5.057,0,0,1,5.052-5.052H49.631a5.057,5.057,0,0,1,5.052,5.052V29.417A1.377,1.377,0,0,1,53.3,30.795" transform="translate(-0.489 -0.488)" fill="#ffc741"/>
          <path id="Trazado_151503" data-name="Trazado 151503" d="M31.319,18.75H19.378a1.378,1.378,0,0,1,0-2.756H31.319a1.378,1.378,0,1,1,0,2.756" transform="translate(-1.466 -1.303)" fill="#ffc741"/>
          <path id="Trazado_151504" data-name="Trazado 151504" d="M43.26,26.75H19.378a1.378,1.378,0,0,1,0-2.756H43.26a1.378,1.378,0,1,1,0,2.756" transform="translate(-1.466 -1.954)" fill="#ffc741"/>
          <path id="Trazado_151505" data-name="Trazado 151505" d="M43.26,34.75H19.378a1.378,1.378,0,0,1,0-2.756H43.26a1.378,1.378,0,1,1,0,2.756" transform="translate(-1.466 -2.606)" fill="#ffc741"/>
        </g>
      </g>
    </g>
  </g>
</svg>
